<svg width="1052" height="280" viewBox="0 0 1052 280" fill="none" xmlns="http://www.w3.org/2000/svg">
<path d="M2.82378 59.4545C7.62379 27.4545 59.3235 21.9526 80.8233 18.4537C102.323 14.9547 208.395 7.58482 259.323 18.4535C341.323 35.9531 466.823 18.4535 548.823 18.4535C630.823 18.4535 908.823 -11.5465 1006.83 4.95549C1108.76 22.1188 1000.89 61.3333 1022.33 178.454C1049.33 325.956 846.325 267.956 777.825 267.956C709.325 267.956 426.851 249.732 341.323 258.955C137.323 280.955 37.7002 281.457 19.3232 267.956C-5.17679 249.956 19.3234 215.455 11.8231 177.955C0.644936 122.066 -3.17623 99.4545 2.82378 59.4545Z" fill="#2D2D68"/>
</svg>
