<svg width="2360" height="399" viewBox="0 0 2360 399" fill="none" xmlns="http://www.w3.org/2000/svg">
<path d="M15.505 345.703C150.725 344.981 285.958 353.098 419.373 361.141C557.125 369.452 695.604 377.638 834.544 382.188C961.665 386.369 1085.72 382.131 1212.21 376.608C1390.81 368.809 1568.97 359.622 1747.36 351.113C1949.41 341.442 2153.76 329.355 2357.42 327.62M28.052 332.256C160.04 330.822 292.155 337.694 422.353 345.845C454.958 347.887 487.424 350.396 520.071 352.341C562.244 354.833 605.159 354.935 647.752 357.461C711.522 361.266 775.236 365.311 839.384 368.087C967.358 373.627 1090.72 368.428 1217.96 362.347C1397.2 353.781 1575.91 343.689 1755.09 334.736C1953.47 324.827 2153.24 312.983 2353.08 309.394M38.8086 317.597C164.013 315.651 289.189 321.18 412.673 329.286C447.153 331.562 481.927 335.14 516.56 336.795C541.487 337.989 566.455 335.72 591.423 336.471C611.705 337.079 632.267 339.07 652.312 340.504C717.76 345.191 782.971 350.555 848.784 354.361C975.708 361.699 1096.12 355.715 1222.45 349.201C1398.78 340.1 1574.37 329.042 1750.63 319.832C1948.44 309.496 2146.95 297.738 2346 292.096M48.0545 301.885C168.349 299.61 288.252 304.189 406.701 312.653C438.257 314.929 469.506 317.955 501.076 320.111C535.402 322.46 568.833 316.652 603.047 318.524C620.727 319.491 638.352 321.283 655.78 322.807C720.572 328.496 784.761 335.27 849.847 340.384C905.476 344.759 962.224 348.064 1019.03 347.034C1088.09 345.788 1157.63 340.726 1226.05 336.971C1402.96 327.261 1578.79 314.849 1755.64 305.219C1949.03 294.689 2142.58 283.387 2336.82 275.639M56.0834 285.269C171.315 282.92 285.483 286.731 398.658 295.719C429.165 298.142 460.441 302.483 491.159 303.956C530.017 305.822 567.867 298.165 606.46 299.496C625.959 300.167 646.8 303.398 665.628 305.429C727.258 312.067 787.965 320.065 849.749 326.476C903.685 332.085 959.217 336.715 1015.17 336.237C1086.21 335.669 1158.44 329.548 1228.66 325.492C1318.76 320.293 1409.38 315.89 1499.16 309.832C1582.65 304.195 1664.93 296.749 1748.85 291.965C1941.07 281.066 2133.29 270.11 2325.79 260.03M63.1892 267.908C171.371 265.758 277.65 268.836 383.607 278.148C413.513 280.776 443.754 285.343 473.926 287.158C521.484 290.002 568.539 279.194 616.517 281.145C633.302 281.834 651.486 285.184 667.544 287.238C728.587 295.116 788.147 304.707 848.993 312.75C901.126 319.644 955.3 325.708 1010.51 325.896C1080.04 326.135 1151.59 319.349 1220.13 315.23C1313.23 309.639 1407.01 304.991 1499.7 298.455C1580.55 292.727 1659.56 284.234 1740.92 279.467C1931.7 268.21 2122.89 257.777 2313.16 245.189M69.6516 249.956C172.545 248.249 272.474 250.991 372.794 260.94C402.336 263.875 432.074 268.767 461.882 270.975C515.162 274.956 567.308 258.949 619.846 262.869C638.17 264.239 655.808 267.152 673.237 269.786C734 278.978 792.567 290.326 852.84 299.997C901.629 307.824 952.741 315.008 1005.6 315.896C1076.85 317.096 1152.32 309.07 1222.33 304.695C1318.04 298.734 1415.26 294.371 1510.26 286.743C1586.62 280.616 1660.7 271.993 1737.92 267.243C1925 255.775 2113.71 246.099 2299.33 231.036M75.7502 231.571C176.084 230.541 271.984 233.465 369.018 244.518C396.993 247.703 429.347 254.757 457.7 255.895C481.647 256.89 511.217 253.295 533.388 251.185C555.768 249.046 599.13 242.789 623.245 244.194C640.128 245.172 658.886 249.512 674.538 252.197C735.077 262.584 792.581 275.52 852.029 286.868C899.097 295.833 949.006 304.502 1001.45 306.072C1073.06 308.222 1151.86 298.978 1222.05 294.473C1316.6 288.404 1412.53 283.933 1506.4 276.35C1584.64 270.03 1659.49 260.337 1738.6 255.303C1920.18 243.75 2105.53 234.99 2284.44 217.578M81.765 212.902C181.232 212.845 274.796 216.383 370.011 228.795C397.399 232.362 424.423 237.709 452.147 240.65C470.625 242.612 494.781 239.415 513.595 237.805C546.606 234.961 597.955 224.404 632.295 227.765C649.444 229.472 667.069 233.659 682.959 236.725C740.938 247.919 795.434 261.754 851.861 274.115C897.391 284.098 946.264 294.16 998.509 296.265C1025.71 297.357 1052.17 295.281 1078.98 293.603C1126.3 290.639 1173.55 287.499 1220.82 284.376C1316.2 278.085 1413.46 273.699 1508.01 265.605C1582.15 259.285 1652.69 249.507 1727.82 244.558C1832.26 237.652 1936.75 230.814 2041 223.425C2117.1 218.033 2194.64 213.266 2269.1 204.75M88.0035 194.102C187.54 194.358 280.937 200.154 375.172 213.471C405.162 217.708 435.641 224.608 466.708 227.049C517.064 230.996 570.022 211.246 621.105 212.748C641.807 213.362 659.082 217.367 677.839 221.019C738.35 232.811 796.889 246.196 857.428 257.954C906.385 267.453 958.685 276.999 1013.28 279.194C1077.47 281.771 1149.09 273.654 1212.72 270.423C1306.32 265.673 1401.27 261.89 1493.74 254.16C1571.98 247.618 1648.13 238.881 1727.09 233.494C1827.62 226.668 1928.15 219.745 2028.41 212.236C2103.57 206.605 2180.21 201.514 2253.43 192.429M94.7176 175.33C197.667 175.648 294.603 184.431 390.936 198.897C418.506 203.038 454.161 212.401 483.256 213.806C502.139 214.716 528.716 209.614 544.312 207.139C559.908 204.665 596.067 197.219 614.6 197.856C631.568 198.425 653.584 204.142 669.502 206.713C737.917 217.765 806.499 228.795 876.787 237.743C933.088 244.91 992.046 251.492 1051.41 252.038C1108.17 252.555 1165.82 249.194 1222.91 249.148C1388.82 249.012 1547.43 235.212 1710.35 223.88C1811.53 216.838 1912.68 209.659 2013.45 201.696C2088.41 195.774 2165.13 190.387 2237.82 180.648M102.173 156.74C207.739 157.013 307.29 169.38 404.421 185.307C432.158 189.858 460.959 196.923 489.746 200.017C527.667 204.102 565.979 187.651 604.012 186.792C626.7 186.286 644.478 190.569 665.684 194.073C736.168 205.7 808.023 216.173 881.319 224.478C940.208 231.15 1001.5 237.094 1062.92 237.561C1116.89 237.988 1169.73 235.286 1224.12 236.526C1387.52 240.297 1549.16 224.893 1709.49 213.448C1806.67 206.508 1903.74 199.284 2000.44 191.32C2074.57 185.211 2151.11 179.653 2222.58 169.272M110.678 138.486C220.719 138.81 325.348 155.58 424.605 173.373C452.231 178.328 482.752 186.621 512.252 189.118C548.802 192.207 583.59 175.341 620.545 176.792C640.674 177.582 660.019 182.588 678.511 185.893C744.785 197.668 812.345 208.442 881.487 217.111C938.487 224.261 998.131 230.718 1058.08 231.503C1111.11 232.202 1165.02 228.806 1218.37 228.801C1381.38 228.801 1545.53 216.212 1705.46 204.267C1803.18 196.967 1900.69 189.117 1997.98 180.717C2068.03 174.653 2141.18 169.232 2207.9 158.344M120.539 120.727C190.702 121.125 259.018 129.703 323.949 139.937C361.408 145.847 398.154 152.502 434.55 159.414C471.702 166.462 522.757 182.361 564.021 178.902C586.446 174.002 610.704 170.639 635.82 168.947C646.143 171.052 656.499 173.138 666.887 175.205C687.915 179.376 709.079 183.421 730.377 187.338C772.047 195.012 814.304 202.225 857.246 208.607C924.737 218.636 1000.16 229.165 1073.13 227.686C1143.65 226.247 1215.81 222.293 1286.14 219.244C1337.28 217.026 1387.72 213.158 1438.61 210.456C1505.08 206.929 1571.99 204.824 1638.25 200.666C1745.12 193.959 1850.87 183.322 1956.53 174.09C2035.23 167.218 2120.62 161.535 2194.32 147.77M132.023 103.622C207.067 104.367 280.293 115.408 348.567 127.223C388.53 134.14 427.752 141.763 466.638 149.63C487.097 153.763 507.473 157.965 527.765 162.235C554.789 167.889 568.959 173.515 600.193 169.829C616.699 165.157 634.505 163.451 653.612 164.71C663.795 166.928 674.002 169.122 684.232 171.291C704.691 175.637 725.286 179.877 746.016 184.01C785.797 191.923 826.123 199.415 867.317 206.03C928.863 215.911 997.963 226.269 1065.22 224.899C1133.21 223.511 1203.99 215.695 1271.1 210.985C1322.13 207.401 1372.93 203.021 1424.42 200.643C1497.35 197.281 1570.83 196.053 1643.64 192.207C1746.35 186.781 1847.17 174.38 1948.12 165.176C2025.06 158.157 2111.5 152.48 2182.12 137.451M145.409 87.3133C224.832 88.3031 302.632 101.807 373.801 115.05C416.058 122.917 457.532 131.478 498.684 140.261C519.861 144.789 540.974 149.374 562.021 154.015C588.192 159.766 602.095 165.113 632.267 161.928C664.439 158.515 673.965 162.03 702.052 168.327C721.999 172.791 742.048 177.169 762.199 181.462C795.7 188.55 829.606 195.347 864.226 201.479C923.954 212.048 993.193 223.778 1059.83 222.026C1131.32 220.154 1205.3 208.436 1274.86 201.832C1398.8 190.063 1522.62 189.613 1648.67 184.062C1748.14 179.681 1844.29 165.819 1941.42 156.575C2016.45 149.431 2104.35 143.702 2171.52 127.399M160.95 71.9603C243.841 72.8705 325.795 88.9743 398.853 103.485C443.055 112.268 486.417 121.739 529.443 131.432C545.753 135.1 562.011 138.801 578.218 142.536C597.13 146.882 620.447 154.835 642.744 155.62C654.279 154.158 666.647 154.191 678.133 155.716C688.279 158.102 698.434 160.474 708.598 162.832C728.508 167.451 748.505 172.002 768.592 176.485C805.855 184.744 843.594 192.702 882.424 199.688C936.683 209.443 998.788 219.802 1059.34 217.794C1127.53 215.518 1195.82 202.663 1261.34 195.108C1313.55 189.09 1365.95 183.971 1420.13 182.025C1504.05 179.016 1588.57 179.437 1672.21 175.381C1761.55 171.052 1847.06 157.042 1934.16 148.429C2007.89 141.137 2098.87 135.272 2162.95 117.57M178.966 57.7166C262.319 58.4447 345.294 76.3688 417.527 91.608C456.441 99.8164 494.67 108.548 532.618 117.456C573.085 126.956 616.881 141.677 661.767 147.093C705.619 152.377 744.449 163.629 784.748 172.554C817.227 179.75 850.098 186.695 883.809 192.89C939.382 203.095 1003.18 213.778 1065.51 211.28C1138.25 208.362 1210.48 194.989 1280.56 187.15C1407.85 172.895 1538.67 172.395 1669.07 165.648C1758.09 161.035 1844.49 149.038 1931.27 140.079C2003.22 132.655 2095.86 126.506 2156.64 107.814M199.738 44.747C283.189 45.5377 365.996 64.7361 437.194 80.6181C519.834 99.0598 597.368 121.472 680.581 139.334C754.534 155.199 824.305 173.868 901.028 187.685C954.307 197.281 1015.56 207.054 1075.01 204.489C1150.07 201.24 1225.82 191.115 1299.4 184.5C1421.47 173.527 1542.11 161.336 1663.28 148.788C1751.68 139.629 1842.5 141.313 1930.36 131.836C2001.04 124.214 2094.66 117.615 2152.92 98.1667M223.489 33.2337C302.142 34.4283 378.753 52.1249 445.894 67.3641C529.373 86.3519 608.334 108.184 689.953 128.384C762.689 146.393 835.565 164.937 912.792 179.699C965.581 189.784 1026.92 200.279 1086.69 197.748C1164.93 194.437 1244.55 185.08 1321.6 178.783C1369.52 174.863 1418.38 171.678 1465.17 165.819C1537.43 156.774 1606.44 143.833 1678.8 134.959C1722.92 129.555 1764.95 128.019 1810.82 128.571C1859.4 129.14 1900.84 127.001 1947.77 121.552C2013.74 113.895 2098.52 107.063 2152.19 88.559M248.877 24.1949C326.97 25.7364 403.064 40.5262 471.674 54.7017C515.581 63.7747 558.398 73.7066 600.641 84.0026C639.807 93.5648 677.573 105.163 719.537 112.547C799.659 126.643 867.052 150.176 941.76 168.447C987.696 179.687 1040.5 191.667 1095.89 190.228C1169.3 188.316 1245.77 178.254 1317.68 171.974C1372.23 167.201 1427.21 162.918 1480.48 156.109C1539.57 148.56 1597.24 139.282 1656.51 131.967C1749.85 120.443 1847.59 122.166 1941.2 111.005C2011.22 102.661 2092.27 95.3396 2153.46 78.5816M275.37 17.7783C352.722 18.2107 429.543 29.2746 499.943 41.4648C537.99 48.052 575.197 55.4298 611.705 63.3253C650.227 71.6588 686.987 82.5294 727.16 89.4521C767.878 96.4659 804.512 97.8198 839.747 109.015C856.98 114.492 873.766 120.198 890.341 126.006C916.163 135.062 941.285 144.448 967.344 153.378C1004.86 166.234 1050.17 182.036 1102.14 181.871C1134.6 181.763 1169.17 177.127 1200.79 174.397C1240.88 170.927 1280.88 167.324 1320.79 163.589C1424.91 153.885 1526.15 141.347 1628.96 129.663C1727.93 118.412 1829.07 111.21 1927.81 99.6059C2003.82 90.6751 2084.34 82.5123 2155.62 68.2685M303.163 13.6429C380.194 13.95 456.945 21.8854 528.967 32.517C566.602 38.1025 603.443 44.5366 639.317 51.7893C684.483 60.8907 725.062 72.1253 773.599 78.0185C816.961 83.2802 842.909 84.4236 875.458 95.7094C889.628 100.618 903.168 105.801 916.33 111.153C939.886 120.721 961.763 130.915 984.381 140.835C1015.98 154.709 1054.47 173.026 1105.07 173.259C1137.24 173.396 1172.38 168.629 1203.67 165.864C1244.01 162.326 1284.22 158.515 1324.34 154.579C1421.05 145.096 1517.24 134.794 1613.24 124.191C1794.99 104.122 1981.12 85.22 2157.37 57.9157M332.44 11.4358C406.882 11.5325 481.353 18.4496 551.726 27.9037C590.19 33.0877 627.881 39.1769 664.607 46.1407C703.017 53.4104 738.742 63.3651 777.768 69.9694C819.046 76.9547 856.183 77.5463 890.467 89.6285C902.161 93.7469 913.393 98.0757 924.345 102.518C947.299 111.825 968.491 121.796 990.27 131.529C1020.69 145.147 1057.58 163.339 1106.8 164.044C1136.65 164.471 1169.4 160.125 1198.38 157.593C1239.07 154.038 1279.51 150.079 1319.92 145.949C1420.73 135.648 1516.8 121.688 1615.93 109.253C1715.44 96.7788 1818.51 90.6069 1917.83 77.8876C1997.64 67.6485 2077.29 57.1648 2157.72 47.7391M363.436 10.8101C443.39 11.0092 523.358 18.296 599.2 28.1597C639.509 33.3963 679.044 39.5727 717.606 46.6583C757.527 53.9964 794.861 63.7747 835.285 70.5496C905.098 82.2222 950.265 105.124 1001.36 126.956C1029.94 139.169 1063.69 153.964 1108.07 154.778C1135.32 155.278 1164.63 151.569 1191.13 149.254C1231.56 145.716 1271.7 141.62 1311.68 137.309C1357.76 132.354 1405.19 127.9 1449.29 120.454C1506.19 110.846 1559.38 97.9677 1616.38 88.4567C1709.46 72.9273 1812.05 78.1436 1907.7 65.8737C1988.83 55.464 2071.36 44.1156 2155.39 38.0632M396.294 11.4187C556.691 13.0228 720.418 35.566 857.638 68.7009C912.973 82.0629 956.531 100.829 1001.99 119.066C1031.37 130.847 1066.07 144.948 1110.09 145.557C1172.68 146.421 1244.46 135.289 1303.79 128.526C1349.56 123.304 1397.23 118.713 1439.75 109.862C1499.65 97.4045 1553.37 80.4303 1614.25 68.7122C1653.71 61.1125 1693.74 59.4174 1736.91 60.4527C1786.8 61.6529 1828.85 61.2434 1876.79 55.2762C1964.71 44.3147 2057.12 31.8628 2149.38 29.1096M431.235 12.9091C581.086 14.8147 733.748 35.0483 861.75 66.5108C913.617 79.2585 957.273 95.6013 1002.8 111.66C1034.3 122.769 1069.78 134.982 1113.56 135.631C1175.1 136.563 1246.08 125.96 1304.14 119.02C1346.24 113.992 1389.23 109.111 1427.79 100.408C1481.66 88.2576 1529.82 72.2618 1584.46 60.6745C1628.27 51.3854 1669.18 49.3831 1717.69 50.0827C1765.51 50.7653 1804.94 49.1043 1851.26 43.6037C1944.12 32.5795 2040.9 21.5497 2138.27 21.1117M468.442 14.9228C610.978 16.6293 744.924 35.7821 866.814 65.1513C916.89 77.2107 961.93 91.5739 1009.31 105.181C1041.59 114.441 1077.18 123.383 1117.91 123.742C1176.07 124.311 1240.33 116.802 1295.73 110.539C1336.54 105.931 1377.51 100.869 1414.35 92.2224C1458.69 81.8183 1498.78 68.6667 1543.35 58.3992C1587.04 48.3307 1630.89 45.1225 1680.43 43.3135C1728.7 41.6625 1776.47 38.1445 1823.1 32.8071C1919.62 21.7887 2020.33 12.2094 2121.14 14.3596M508.14 17.1242C641.023 18.1936 755.345 35.4294 869.318 62.0284C945.789 79.8785 1032.83 110.823 1125.8 111.307C1181.05 111.597 1238.76 107.672 1292.14 102.268C1327.98 98.6446 1364.09 94.1507 1396.35 86.7274C1434.12 78.0298 1467.8 66.636 1505.45 57.8474C1587.39 38.7515 1689.59 35.7252 1779.37 25.2699C1882.24 13.2845 1989.75 4.56988 2097.02 9.09784M550.509 19.1492C611.747 19.4052 672.202 21.8 730.783 29.5135C783.936 36.5102 832.208 47.5742 880.55 58.7519C961.049 77.37 1044.35 99.3215 1140.02 100.038C1191.32 100.419 1243.18 99.5718 1293.41 95.0723C1364.75 88.6899 1412.46 72.4893 1473.95 57.9725C1515.92 48.0577 1562.9 41.937 1609.13 36.1974C1659.95 29.8946 1710.46 22.9491 1761.6 17.09C1860.67 5.71325 1962.14 -0.606546 2064.64 5.59949M1959.44 0.35479C2058.64 5.04772 2121.07 26.5499 2123.22 67.7111C2124.48 91.8242 2123.68 115.448 2144.62 138.327C2170.09 166.143 2210.25 191.28 2238.9 218.533C2282.26 259.763 2302.84 302.545 2302.22 347.398M1895.24 0.332031C1992.37 7.28325 2068.92 33.1484 2077.93 74.0366C2083.06 97.3249 2081.78 122.143 2099.39 144.573C2120.75 171.809 2158.58 196.337 2183.83 222.942C2222.26 263.443 2237.49 305.531 2234.97 348.86M1830.63 3.52323C1922.69 12.4711 2010.41 41.8175 2022.64 81.2722C2026.83 94.7082 2034.05 106.546 2033.13 120.152C2032.59 130.607 2035.79 141.038 2042.61 151.12C2060.08 177.782 2095.5 201.815 2117.71 227.8C2151.85 267.721 2162.47 309.081 2158.67 351.175M1766.09 9.41071C1818.4 16.0377 1863.64 29.3201 1901.68 45.185C1935.73 59.3719 1950.98 71.5394 1959.03 90.5671C1964.33 103.184 1974.06 113.4 1971.23 126.256C1968.9 136.833 1970.53 147.493 1976.06 157.872C1989.05 182.509 2019.59 204.966 2039 228.784C2072.14 269.416 2079.57 311.624 2074.85 354.173M1701.99 17.5224C1752.85 25.0424 1800.05 40.549 1837.09 56.249C1868.67 69.6337 1879.72 80.0151 1887.09 97.7742C1892.69 111.159 1905.4 120.744 1900.65 134.419C1897.19 144.524 1897.48 154.783 1901.53 164.852C1911.1 189.431 1940.16 212.065 1957.48 235.786C1986.31 275.502 1990.1 316.664 1984.83 357.797M1629.1 27.5738C1676.66 36.6468 1729.42 40.8106 1767.08 56.9429C1785.26 64.7076 1796.57 73.7863 1803.45 84.1278C1808.32 91.4601 1806.57 99.3556 1812.02 106.415C1816.93 112.78 1831.61 116.739 1837.2 122.798C1842.8 128.753 1839.27 133.185 1837.9 139.373C1835.51 150.096 1835.1 160.955 1833.03 171.706C1828.15 197.759 1855.41 219.733 1870.8 244.518C1894.76 282.943 1896.24 322.386 1890.02 361.744M1551.02 39.0188C1597.58 45.4808 1659.05 39.1212 1699.02 53.6152C1724.75 62.9499 1727.44 80.1857 1729.17 93.1325C1730.05 99.6287 1724.11 109.236 1733.29 114.817C1741.54 119.845 1759.53 119.652 1770.12 123.144C1788.02 129.066 1780.4 133.924 1780.54 143.094C1780.76 156.496 1780.19 166.069 1767.42 178.606C1757.62 188.242 1747.34 197.987 1750.49 208.664C1754.27 221.542 1769.32 234.717 1776.66 247.425C1799.2 286.43 1799.59 326.3 1792.24 366.067M1482.93 50.8564C1527.69 58.2911 1598.53 41.5729 1635.64 60.1626C1652.3 68.5074 1650.46 86.2382 1650.03 95.8459C1649.82 100.527 1639.41 118.241 1648.74 123.036C1660.76 129.208 1685.89 124.857 1699.98 128.725C1715.58 133.02 1707.34 141.711 1707.93 149.396C1709.07 163.964 1708.58 173.236 1689.59 185.569C1674.44 195.404 1656.02 204.841 1659.56 217.151C1663.19 229.722 1677 242.515 1683.21 255.041C1702.12 293.154 1700.67 331.971 1692.66 370.573M1436.35 62.199C1450.1 66.6815 1472.81 65.686 1489.37 67.0398C1513.15 68.991 1539.33 71.2948 1552.59 80.6181C1565.31 89.5545 1564.38 102.973 1564.41 112.746C1564.41 119.572 1557.59 128.497 1568.41 134.231C1576.15 138.327 1596.92 137.513 1603.53 141.66C1611.35 146.558 1603.67 151.666 1600.09 157.138C1592.67 168.453 1586.11 179.585 1577.28 190.74C1569.43 200.655 1561.24 211.701 1565.38 222.242C1571.13 236.861 1598.95 247.129 1604.72 262.334C1618.71 299.456 1602.16 338.189 1592.85 375.163M1399.71 72.9387C1397.86 81.3348 1447.8 95.2998 1457.92 102.399C1476.72 115.585 1471.28 127.906 1479.8 141.785C1486.53 152.758 1510.89 159.061 1481.63 167.998C1469.04 171.849 1456.9 172.759 1451.19 179.039C1447.28 183.356 1450.54 190 1451.77 194.574C1455.07 206.605 1461.79 218.44 1471.8 229.842C1486.36 246.338 1533.83 250.889 1536.7 270.087C1542.14 306.402 1507.33 344.093 1494.25 379.697M1354.89 83.0186C1343.43 92.2281 1368.44 106.273 1377.76 114.305C1392.8 127.274 1395.66 137.724 1398.92 151.569C1401.72 163.515 1415.22 174.391 1377.58 177.736C1360.05 179.289 1350.76 178.777 1345.66 186.542C1342.96 190.649 1347.82 196.212 1350.36 200.097C1358.54 212.523 1369.14 224.665 1382.07 236.406C1399.13 251.532 1450.22 256.509 1452.51 274.763C1454.43 290.036 1444.55 305.196 1434.87 319.809C1420.76 341.141 1407.15 362.171 1398.33 384.009M1304.87 89.4919C1283.89 97.6889 1301.89 113.702 1308.83 122.934C1318.23 135.448 1320.02 146.308 1321.28 159.169C1322.46 170.808 1330.27 180.461 1297.31 184.864C1268.12 188.76 1264.37 194.722 1272.81 206.44C1280.57 217.208 1293.33 227.885 1302.6 238.465C1315.32 252.954 1344.36 265.633 1346.55 281.401C1351.49 316.925 1321.37 353.36 1306.56 388.013M1257.14 92.1939C1227.5 100.852 1238.55 120.482 1243.01 132.655C1247 143.229 1248.9 153.916 1248.71 164.613C1248.44 175.677 1250.76 183.43 1228.66 191.007C1208.2 198.027 1194.37 199.733 1205.21 212.139C1212.76 220.78 1228.68 227.72 1233.73 236.873C1243.1 253.887 1231.11 272.709 1235.57 290.235C1244.23 324.212 1233.04 358.013 1220.41 391.591M1214.16 92.5295C1160.22 111.808 1187.69 147.03 1182.6 172.981C1180.55 183.407 1174.84 190.296 1158.35 198.203C1145.94 204.153 1135.49 209.443 1144.36 217.356C1151.35 223.664 1167.27 227.276 1171.37 234.523C1176.77 244.012 1158.18 255.366 1149.41 264.006C1137.1 276.123 1126.8 284.183 1132.3 296.902C1146.58 329.997 1152.46 361.05 1141.41 394.595M1178.41 91.8924C1117.61 111.233 1133 147.218 1125.25 175.136C1121.82 187.566 1110.59 194.193 1095.54 204.619C1087.75 210.018 1077.76 216.292 1086.32 222.253C1094.49 227.942 1110.1 228.647 1112.77 236.52C1117.17 249.415 1076.64 266.788 1063.26 277.306C1051.62 286.436 1045.83 291.703 1049.72 301.942C1054.22 313.888 1063.87 325.521 1069.68 337.381C1079.47 357.489 1078.49 376.631 1070.85 396.887M1148.86 91.2383C1084.69 111.785 1100.07 146.114 1086.7 175.324C1080.99 187.742 1066.56 196.223 1050.6 206.61C1042.84 211.673 1032.93 217.452 1038.46 223.448C1043.55 228.971 1057.17 230.655 1058.6 237.766C1061.2 250.809 1024.16 266.936 1010.55 277.778C999.264 286.771 993.403 292.499 995.641 302.647C998.369 315.014 1006.15 327.176 1010.38 339.463C1017.29 359.475 1015.08 378.394 1005.7 398.235M1120.47 90.1575C1054 110.243 1073.11 140.961 1052.03 169.403C1042.42 182.372 1021.57 193.197 1003.14 204.17C995.459 208.721 984.605 214.324 985.906 220.166C987.067 225.337 996.173 229.512 996.033 235.189C995.739 248.147 968.435 261.543 955.832 272.926C946.04 281.777 941.341 288.176 942.012 297.955C944.39 332.517 957.538 363.877 938.361 398.332M1092.41 88.4225C1024.29 106.244 1045.3 134.379 1015.14 160.415C999.893 173.572 975.121 185.188 953.594 196.724C944.628 201.514 932.095 207.452 927.814 213.38C924.275 218.277 927.129 223.721 926.192 228.738C922.093 250.519 886.537 268.273 886.425 290.895C886.243 327.034 891.46 361.869 869.192 397.268M1064.07 85.7831C1029.46 93.0358 1013.71 101.472 1004.2 116.381C997.11 127.576 992.424 138.213 975.96 147.969C942.767 167.633 898.384 184.101 865.331 203.715C855.624 209.483 853.763 215.348 851.064 222.236C844.238 239.643 831.481 256.458 829.061 274.137C823.27 315.048 825.76 355.436 798.456 395.3M1034.83 82.0857C1005.22 86.6364 985.178 91.1871 972.309 103.036C962.686 111.899 957.077 120.482 942.641 128.446C912.19 145.176 873.346 159.812 839.608 175.518C827.019 181.405 814.304 186.633 800.442 191.974C756.031 209.125 772.872 242.663 768.41 265.07C759.849 308.006 756.954 351.027 726.754 392.627M1004.06 77.0457C978.576 79.7477 952.307 81.8012 935.256 90.4647C920.779 97.8084 911.085 105.994 895.013 113.082C856.841 129.908 815.283 145.38 777.516 162.372C764.416 168.302 750.071 173.757 734.643 178.675C716.082 184.613 702.052 191.786 698.751 201.724C696.457 208.601 701.954 215.712 704.905 222.39C709.843 233.585 707.969 243.136 705.227 254.37C694.177 299.667 687.435 345.498 654.536 389.27M971.148 70.4586C948.306 72.1139 913.673 71.8409 893.223 77.1652C876.074 81.6249 861.792 90.0665 847.063 95.6127C802.694 112.388 756.954 128.469 716.445 146.808C702.242 153.331 686.49 159.269 669.419 164.533C649.304 170.745 632.617 178.003 628.211 188.624C625.287 195.706 629.791 200.956 635.47 207.469C645.164 218.601 644.129 226.918 640.94 238.534C627.385 287.738 618.629 337.978 582.191 385.471M880.158 49.5822C863.205 51.2887 852.322 51.5788 847.035 58.3082C844.881 61.0557 851.595 61.8862 847.035 64.4516C842.321 67.1252 780.146 64.9693 771.501 65.3219C745.918 66.3629 730.097 67.5347 715.97 76.2437C700.443 85.7831 694.583 98.4853 684.637 109.066C675.853 118.412 664.593 124.919 650.773 132.923C628.099 146.063 614.265 156.41 580.484 165.734C546.354 175.142 505.902 183.055 487.522 198.982C477.94 207.253 471.408 215.808 460.791 224.114C449.153 233.215 447.167 241.679 449.601 251.805C460.455 295.821 537.122 336.175 510.14 381.432M846.685 42.4432C828.11 43.7117 820.235 45.2874 805.435 48.7005C801.323 49.6447 801.925 52.0282 796.385 53.126C781.181 56.1295 741.833 52.4605 725.048 52.7563C699.744 53.1943 672.887 53.0919 657.417 62.3071C640.254 72.5462 632.239 85.3337 619.496 96.4716C610.222 104.6 597.354 110.818 585.128 118.127C563.112 131.302 547.837 141.876 516.043 151.888C483.871 162.008 445.587 171.308 427.668 186.809C418.171 195.029 413.037 203.692 402.77 211.935C391.09 221.321 386.698 229.17 388.013 239.717C393.762 286.231 467.002 330.066 439.012 377.188M815.353 36.3965C788.776 37.4374 764.717 42.375 739.161 42.9722C696.345 43.9677 631.386 35.3669 599.284 50.5208C581.505 58.9225 572.078 70.396 559.265 80.0606C548.998 87.8196 535.849 94.2816 523.61 101.466C500.558 115.004 483.927 127.496 453.671 138.935C420.395 151.524 381.802 163.885 368.346 182.332C354.358 201.411 331.978 216.758 334.776 237.311C340.846 282.59 398.602 327.597 369.032 373.013M784.79 31.4077C749.946 31.9766 714.851 34.8833 680.077 34.0301C639.247 33.0232 575.337 27.5055 542.284 39.8834C522.211 47.4035 510.476 59.315 495.579 68.3652C484.389 75.1515 470.876 81.1584 459.644 87.922C437.418 101.312 420.269 114.8 394 127.172C364.388 141.091 331.348 155.227 319.137 173.475C305.709 193.51 285.916 211.736 286.672 232.874C288.308 278.051 334.3 324.468 300.827 369.065M753.625 27.4259C710.682 27.3576 667.74 28.1654 624.938 26.584C582.848 25.031 523.26 20.4348 486.878 31.3679C466.862 37.3862 453.685 46.9143 438.705 54.8382C426.689 61.2036 412.869 66.8806 401.539 73.4734C377.76 87.3133 360.387 102.814 336.888 116.819C281.72 149.692 245.128 189.63 242.47 229.842C239.505 274.683 272.936 321.994 234.749 365.425M720.502 24.411C668.202 23.6772 616.391 22.5282 564.343 20.3666C523.288 18.66 470.876 15.7021 433.459 24.3484C400.014 32.0676 363.954 50.5435 342.455 63.3424C318.941 77.3415 302.282 93.2975 282.587 108.218C234.273 144.817 207.879 186.604 201.039 228.095C193.709 272.465 214.215 320.247 171.259 362.342M684.064 22.3063C625.315 20.998 567.182 18.2846 508.671 15.8102C468.107 14.1036 420.786 12.2435 382.614 19.3199C303.121 34.0642 263.438 71.2094 231.322 101.568C189.359 141.154 171.357 184.551 160.642 227.282C149.606 271.276 157.984 318.99 110.845 359.924M642.954 21.0719C580.932 19.3654 519.792 15.6907 458.064 13.0285C416.604 11.2424 371.465 10.2469 332.048 16.7885C250.835 30.27 210.984 65.9022 183.204 97.1883C146.724 138.259 133.897 182.071 120.413 225.177C106.523 269.592 104.859 317.688 53.9014 358.337M595.787 20.668C652.493 20.8671 709.619 21.9707 764.27 28.6602C809.212 34.1552 851.078 43.0177 891.964 52.2329C982.996 72.751 1058.81 89.162 1163.33 91.5967C1210.16 92.6888 1257.23 93.5876 1303.44 89.5659C1366.09 84.1164 1407.97 68.4278 1461.39 55.6403C1543.33 36.0324 1642.21 24.8319 1732.47 13.4267C1827.7 1.38438 1924.11 -3.58726 2022.69 4.10914C2067.23 5.09892 2120 7.56767 2144.39 24.9855C2160.46 36.4306 2158.57 50.9132 2156.41 63.5585C2152.22 88.4965 2151.88 108.958 2176.47 132.388C2205.76 160.307 2247.03 185.939 2279.33 213.277C2329.49 255.639 2356.87 299.781 2358.97 346.88C2155.6 346.88 1950.64 358.917 1748.88 368.053C1567.75 376.261 1386.75 385.118 1205.35 392.217C1078.81 397.183 954.251 399.93 827.228 396.267C687.197 392.228 548.215 383.753 409.414 375.448C274.39 367.381 137.758 357.956 0.97168 357.814C52.2088 318.035 62.8955 271.225 77.0931 227.424C91.4305 183.168 103.418 137.923 138.499 95.4022C164.419 63.9966 208.27 26.9935 290.826 15.1958C328.243 9.8601 368.612 10.3607 407.512 11.851C470.457 14.2629 532.646 18.8136 595.787 20.668Z" stroke="#6F6F90" stroke-width="0.666667" stroke-miterlimit="10"/>
</svg>
