<svg width="1920" height="807" viewBox="0 0 1920 807" fill="none" xmlns="http://www.w3.org/2000/svg">
<g opacity="0.6" clip-path="url(#clip0_198_4075)">
<path d="M-3.86029 435.039H1917.14L2790.35 806.999H-877.07L-3.86029 435.039Z" stroke="#6F6F90" stroke-miterlimit="10"/>
<path d="M-778.48 765.008H2691.76" stroke="#6F6F90" stroke-miterlimit="10"/>
<path d="M-689.949 727.293H2603.23" stroke="#6F6F90" stroke-miterlimit="10"/>
<path d="M-610.02 693.242H2523.3" stroke="#6F6F90" stroke-miterlimit="10"/>
<path d="M-537.48 662.344H2450.77" stroke="#6F6F90" stroke-miterlimit="10"/>
<path d="M-471.371 634.18H2384.65" stroke="#6F6F90" stroke-miterlimit="10"/>
<path d="M-410.859 608.41H2324.14" stroke="#6F6F90" stroke-miterlimit="10"/>
<path d="M-355.27 584.73H2268.55" stroke="#6F6F90" stroke-miterlimit="10"/>
<path d="M-304.02 562.898H2217.31" stroke="#6F6F90" stroke-miterlimit="10"/>
<path d="M-256.629 542.715H2169.91" stroke="#6F6F90" stroke-miterlimit="10"/>
<path d="M-212.67 523.988H2125.95" stroke="#6F6F90" stroke-miterlimit="10"/>
<path d="M-171.779 506.574H2085.06" stroke="#6F6F90" stroke-miterlimit="10"/>
<path d="M-133.66 490.336H2046.94" stroke="#6F6F90" stroke-miterlimit="10"/>
<path d="M-98.0293 475.152H2011.31" stroke="#6F6F90" stroke-miterlimit="10"/>
<path d="M-64.6504 460.941H1977.93" stroke="#6F6F90" stroke-miterlimit="10"/>
<path d="M-33.3203 447.594H1946.61" stroke="#6F6F90" stroke-miterlimit="10"/>
<path d="M1797.08 435.039L2561.14 806.999" stroke="#6F6F90" stroke-miterlimit="10"/>
<path d="M1677.02 435.039L2331.93 806.999" stroke="#6F6F90" stroke-miterlimit="10"/>
<path d="M1556.95 435.039L2102.71 806.999" stroke="#6F6F90" stroke-miterlimit="10"/>
<path d="M1436.89 435.039L1873.5 806.999" stroke="#6F6F90" stroke-miterlimit="10"/>
<path d="M1316.83 435.039L1644.28 806.999" stroke="#6F6F90" stroke-miterlimit="10"/>
<path d="M1196.77 435.039L1415.07 806.999" stroke="#6F6F90" stroke-miterlimit="10"/>
<path d="M1076.7 435.039L1185.86 806.999" stroke="#6F6F90" stroke-miterlimit="10"/>
<path d="M956.641 435.039V806.999" stroke="#6F6F90" stroke-miterlimit="10"/>
<path d="M836.58 435.039L727.43 806.999" stroke="#6F6F90" stroke-miterlimit="10"/>
<path d="M716.521 435.039L498.211 806.999" stroke="#6F6F90" stroke-miterlimit="10"/>
<path d="M596.45 435.039L269 806.999" stroke="#6F6F90" stroke-miterlimit="10"/>
<path d="M476.389 435.039L39.7891 806.999" stroke="#6F6F90" stroke-miterlimit="10"/>
<path d="M356.33 435.039L-189.43 806.999" stroke="#6F6F90" stroke-miterlimit="10"/>
<path d="M236.269 435.039L-418.641 806.999" stroke="#6F6F90" stroke-miterlimit="10"/>
<path d="M116.201 435.039L-647.859 806.999" stroke="#6F6F90" stroke-miterlimit="10"/>
</g>
<defs>
<clipPath id="clip0_198_4075">
<rect width="1920" height="807" fill="white"/>
</clipPath>
</defs>
</svg>
