<svg width="1935" height="1210" viewBox="0 0 1935 1210" fill="none" xmlns="http://www.w3.org/2000/svg">
<g opacity="0.1">
<rect x="-0.68644" y="0.68644" width="60.4067" height="60.4067" transform="matrix(-1 0 0 1 1933.02 0)" stroke="white" stroke-width="1.37288"/>
<rect x="-0.68644" y="0.68644" width="60.4067" height="60.4067" transform="matrix(-1 0 0 1 1872.61 0)" stroke="white" stroke-width="1.37288"/>
<rect x="-0.68644" y="0.68644" width="60.4067" height="60.4067" transform="matrix(-1 0 0 1 1812.2 0)" stroke="white" stroke-width="1.37288"/>
<rect x="-0.68644" y="0.68644" width="60.4067" height="60.4067" transform="matrix(-1 0 0 1 1751.8 0)" stroke="white" stroke-width="1.37288"/>
<rect x="-0.68644" y="0.68644" width="60.4067" height="60.4067" transform="matrix(-1 0 0 1 1691.39 0)" stroke="white" stroke-width="1.37288"/>
<rect x="-0.68644" y="0.68644" width="60.4067" height="60.4067" transform="matrix(-1 0 0 1 1630.98 0)" stroke="white" stroke-width="1.37288"/>
<rect x="-0.68644" y="0.68644" width="60.4067" height="60.4067" transform="matrix(-1 0 0 1 1570.58 0)" stroke="white" stroke-width="1.37288"/>
<rect x="-0.68644" y="0.68644" width="60.4067" height="60.4067" transform="matrix(-1 0 0 1 1510.17 0)" stroke="white" stroke-width="1.37288"/>
<rect x="-0.68644" y="0.68644" width="60.4067" height="60.4067" transform="matrix(-1 0 0 1 1449.76 0)" stroke="white" stroke-width="1.37288"/>
<rect x="-0.68644" y="0.68644" width="60.4067" height="60.4067" transform="matrix(-1 0 0 1 1389.36 0)" stroke="white" stroke-width="1.37288"/>
<rect x="-0.68644" y="0.68644" width="60.4067" height="60.4067" transform="matrix(-1 0 0 1 1328.95 0)" stroke="white" stroke-width="1.37288"/>
<rect x="-0.68644" y="0.68644" width="60.4067" height="60.4067" transform="matrix(-1 0 0 1 1268.54 0)" stroke="white" stroke-width="1.37288"/>
<rect x="-0.68644" y="0.68644" width="60.4067" height="60.4067" transform="matrix(-1 0 0 1 1208.13 0)" stroke="white" stroke-width="1.37288"/>
<rect x="-0.68644" y="0.68644" width="60.4067" height="60.4067" transform="matrix(-1 0 0 1 1147.73 0)" stroke="white" stroke-width="1.37288"/>
<rect x="-0.68644" y="0.68644" width="60.4067" height="60.4067" transform="matrix(-1 0 0 1 1087.32 0)" stroke="white" stroke-width="1.37288"/>
<rect x="-0.68644" y="0.68644" width="60.4067" height="60.4067" transform="matrix(-1 0 0 1 1026.92 0)" stroke="white" stroke-width="1.37288"/>
<rect x="-0.68644" y="0.68644" width="60.4067" height="60.4067" transform="matrix(-1 0 0 1 966.508 0)" stroke="white" stroke-width="1.37288"/>
<rect x="-0.68644" y="0.68644" width="60.4067" height="60.4067" transform="matrix(-1 0 0 1 906.102 0)" stroke="white" stroke-width="1.37288"/>
<rect x="-0.68644" y="0.68644" width="60.4067" height="60.4067" transform="matrix(-1 0 0 1 845.695 0)" stroke="white" stroke-width="1.37288"/>
<rect x="-0.68644" y="0.68644" width="60.4067" height="60.4067" transform="matrix(-1 0 0 1 785.288 0)" stroke="white" stroke-width="1.37288"/>
<rect x="-0.68644" y="0.68644" width="60.4067" height="60.4067" transform="matrix(-1 0 0 1 724.881 0)" stroke="white" stroke-width="1.37288"/>
<rect x="-0.68644" y="0.68644" width="60.4067" height="60.4067" transform="matrix(-1 0 0 1 664.475 0)" stroke="white" stroke-width="1.37288"/>
<rect x="-0.68644" y="0.68644" width="60.4067" height="60.4067" transform="matrix(-1 0 0 1 604.068 0)" stroke="white" stroke-width="1.37288"/>
<rect x="-0.68644" y="0.68644" width="60.4067" height="60.4067" transform="matrix(-1 0 0 1 543.661 0)" stroke="white" stroke-width="1.37288"/>
<rect x="-0.68644" y="0.68644" width="60.4067" height="60.4067" transform="matrix(-1 0 0 1 483.254 0)" stroke="white" stroke-width="1.37288"/>
<rect x="-0.68644" y="0.68644" width="60.4067" height="60.4067" transform="matrix(-1 0 0 1 422.848 0)" stroke="white" stroke-width="1.37288"/>
<rect x="-0.68644" y="0.68644" width="60.4067" height="60.4067" transform="matrix(-1 0 0 1 362.441 0)" stroke="white" stroke-width="1.37288"/>
<rect x="-0.68644" y="0.68644" width="60.4067" height="60.4067" transform="matrix(-1 0 0 1 302.034 0)" stroke="white" stroke-width="1.37288"/>
<rect x="-0.68644" y="0.68644" width="60.4067" height="60.4067" transform="matrix(-1 0 0 1 241.627 0)" stroke="white" stroke-width="1.37288"/>
<rect x="-0.68644" y="0.68644" width="60.4067" height="60.4067" transform="matrix(-1 0 0 1 181.221 0)" stroke="white" stroke-width="1.37288"/>
<rect x="-0.68644" y="0.68644" width="60.4067" height="60.4067" transform="matrix(-1 0 0 1 120.814 0)" stroke="white" stroke-width="1.37288"/>
<rect x="-0.68644" y="0.68644" width="60.4067" height="60.4067" transform="matrix(-1 0 0 1 60.4074 0)" stroke="white" stroke-width="1.37288"/>
<rect x="-0.68644" y="0.68644" width="60.4067" height="60.4067" transform="matrix(-1 0 0 1 1933.02 60.4062)" stroke="white" stroke-width="1.37288"/>
<rect x="-0.68644" y="0.68644" width="60.4067" height="60.4067" transform="matrix(-1 0 0 1 1872.61 60.4062)" stroke="white" stroke-width="1.37288"/>
<rect x="-0.68644" y="0.68644" width="60.4067" height="60.4067" transform="matrix(-1 0 0 1 1812.2 60.4062)" stroke="white" stroke-width="1.37288"/>
<rect x="-0.68644" y="0.68644" width="60.4067" height="60.4067" transform="matrix(-1 0 0 1 1751.8 60.4062)" stroke="white" stroke-width="1.37288"/>
<rect x="-0.68644" y="0.68644" width="60.4067" height="60.4067" transform="matrix(-1 0 0 1 1691.39 60.4062)" stroke="white" stroke-width="1.37288"/>
<rect x="-0.68644" y="0.68644" width="60.4067" height="60.4067" transform="matrix(-1 0 0 1 1630.98 60.4062)" stroke="white" stroke-width="1.37288"/>
<rect x="-0.68644" y="0.68644" width="60.4067" height="60.4067" transform="matrix(-1 0 0 1 1570.58 60.4062)" stroke="white" stroke-width="1.37288"/>
<rect x="-0.68644" y="0.68644" width="60.4067" height="60.4067" transform="matrix(-1 0 0 1 1510.17 60.4062)" stroke="white" stroke-width="1.37288"/>
<rect x="-0.68644" y="0.68644" width="60.4067" height="60.4067" transform="matrix(-1 0 0 1 1449.76 60.4062)" stroke="white" stroke-width="1.37288"/>
<rect x="-0.68644" y="0.68644" width="60.4067" height="60.4067" transform="matrix(-1 0 0 1 1389.36 60.4062)" stroke="white" stroke-width="1.37288"/>
<rect x="-0.68644" y="0.68644" width="60.4067" height="60.4067" transform="matrix(-1 0 0 1 1328.95 60.4062)" stroke="white" stroke-width="1.37288"/>
<rect x="-0.68644" y="0.68644" width="60.4067" height="60.4067" transform="matrix(-1 0 0 1 1268.54 60.4062)" stroke="white" stroke-width="1.37288"/>
<rect x="-0.68644" y="0.68644" width="60.4067" height="60.4067" transform="matrix(-1 0 0 1 1208.13 60.4062)" stroke="white" stroke-width="1.37288"/>
<rect x="-0.68644" y="0.68644" width="60.4067" height="60.4067" transform="matrix(-1 0 0 1 1147.73 60.4062)" stroke="white" stroke-width="1.37288"/>
<rect x="-0.68644" y="0.68644" width="60.4067" height="60.4067" transform="matrix(-1 0 0 1 1087.32 60.4062)" stroke="white" stroke-width="1.37288"/>
<rect x="-0.68644" y="0.68644" width="60.4067" height="60.4067" transform="matrix(-1 0 0 1 1026.92 60.4062)" stroke="white" stroke-width="1.37288"/>
<rect x="-0.68644" y="0.68644" width="60.4067" height="60.4067" transform="matrix(-1 0 0 1 966.508 60.4062)" stroke="white" stroke-width="1.37288"/>
<rect x="-0.68644" y="0.68644" width="60.4067" height="60.4067" transform="matrix(-1 0 0 1 906.102 60.4062)" stroke="white" stroke-width="1.37288"/>
<rect x="-0.68644" y="0.68644" width="60.4067" height="60.4067" transform="matrix(-1 0 0 1 845.695 60.4062)" stroke="white" stroke-width="1.37288"/>
<rect x="-0.68644" y="0.68644" width="60.4067" height="60.4067" transform="matrix(-1 0 0 1 785.288 60.4062)" stroke="white" stroke-width="1.37288"/>
<rect x="-0.68644" y="0.68644" width="60.4067" height="60.4067" transform="matrix(-1 0 0 1 724.881 60.4062)" stroke="white" stroke-width="1.37288"/>
<rect x="-0.68644" y="0.68644" width="60.4067" height="60.4067" transform="matrix(-1 0 0 1 664.475 60.4062)" stroke="white" stroke-width="1.37288"/>
<rect x="-0.68644" y="0.68644" width="60.4067" height="60.4067" transform="matrix(-1 0 0 1 604.068 60.4062)" stroke="white" stroke-width="1.37288"/>
<rect x="-0.68644" y="0.68644" width="60.4067" height="60.4067" transform="matrix(-1 0 0 1 543.661 60.4062)" stroke="white" stroke-width="1.37288"/>
<rect x="-0.68644" y="0.68644" width="60.4067" height="60.4067" transform="matrix(-1 0 0 1 483.254 60.4062)" stroke="white" stroke-width="1.37288"/>
<rect x="-0.68644" y="0.68644" width="60.4067" height="60.4067" transform="matrix(-1 0 0 1 422.848 60.4062)" stroke="white" stroke-width="1.37288"/>
<rect x="-0.68644" y="0.68644" width="60.4067" height="60.4067" transform="matrix(-1 0 0 1 362.441 60.4062)" stroke="white" stroke-width="1.37288"/>
<rect x="-0.68644" y="0.68644" width="60.4067" height="60.4067" transform="matrix(-1 0 0 1 302.034 60.4062)" stroke="white" stroke-width="1.37288"/>
<rect x="-0.68644" y="0.68644" width="60.4067" height="60.4067" transform="matrix(-1 0 0 1 241.627 60.4062)" stroke="white" stroke-width="1.37288"/>
<rect x="-0.68644" y="0.68644" width="60.4067" height="60.4067" transform="matrix(-1 0 0 1 181.221 60.4062)" stroke="white" stroke-width="1.37288"/>
<rect x="-0.68644" y="0.68644" width="60.4067" height="60.4067" transform="matrix(-1 0 0 1 120.814 60.4062)" stroke="white" stroke-width="1.37288"/>
<rect x="-0.68644" y="0.68644" width="60.4067" height="60.4067" transform="matrix(-1 0 0 1 60.4074 60.4062)" stroke="white" stroke-width="1.37288"/>
<rect x="-0.68644" y="0.68644" width="60.4067" height="60.4067" transform="matrix(-1 0 0 1 1933.02 120.812)" stroke="white" stroke-width="1.37288"/>
<rect x="-0.68644" y="0.68644" width="60.4067" height="60.4067" transform="matrix(-1 0 0 1 1872.61 120.812)" stroke="white" stroke-width="1.37288"/>
<rect x="-0.68644" y="0.68644" width="60.4067" height="60.4067" transform="matrix(-1 0 0 1 1812.2 120.812)" stroke="white" stroke-width="1.37288"/>
<rect x="-0.68644" y="0.68644" width="60.4067" height="60.4067" transform="matrix(-1 0 0 1 1751.8 120.812)" stroke="white" stroke-width="1.37288"/>
<path d="M1631.67 121.499V152.389C1631.67 168.69 1644.88 181.905 1661.19 181.905H1692.08V121.499H1631.67Z" stroke="white" stroke-width="1.37288"/>
<path d="M1571.26 121.499V181.905H1602.15C1618.45 181.905 1631.67 168.69 1631.67 152.389V121.499H1571.26Z" stroke="white" stroke-width="1.37288"/>
<rect x="-0.68644" y="0.68644" width="60.4067" height="60.4067" transform="matrix(-1 0 0 1 1570.58 120.812)" stroke="white" stroke-width="1.37288"/>
<rect x="-0.68644" y="0.68644" width="60.4067" height="60.4067" transform="matrix(-1 0 0 1 1510.17 120.812)" stroke="white" stroke-width="1.37288"/>
<rect x="-0.68644" y="0.68644" width="60.4067" height="60.4067" transform="matrix(-1 0 0 1 1449.76 120.812)" stroke="white" stroke-width="1.37288"/>
<rect x="-0.68644" y="0.68644" width="60.4067" height="60.4067" transform="matrix(-1 0 0 1 1389.36 120.812)" stroke="white" stroke-width="1.37288"/>
<rect x="-0.68644" y="0.68644" width="60.4067" height="60.4067" transform="matrix(-1 0 0 1 1328.95 120.812)" stroke="white" stroke-width="1.37288"/>
<rect x="-0.68644" y="0.68644" width="60.4067" height="60.4067" transform="matrix(-1 0 0 1 1268.54 120.812)" stroke="white" stroke-width="1.37288"/>
<rect x="-0.68644" y="0.68644" width="60.4067" height="60.4067" transform="matrix(-1 0 0 1 1208.13 120.812)" stroke="white" stroke-width="1.37288"/>
<path d="M1088.01 121.499V152.389C1088.01 168.69 1101.22 181.905 1117.53 181.905H1148.42V121.499H1088.01Z" stroke="white" stroke-width="1.37288"/>
<path d="M1027.6 121.499V181.905H1058.49C1074.79 181.905 1088.01 168.69 1088.01 152.389V121.499H1027.6Z" stroke="white" stroke-width="1.37288"/>
<rect x="-0.68644" y="0.68644" width="60.4067" height="60.4067" transform="matrix(-1 0 0 1 1026.92 120.812)" stroke="white" stroke-width="1.37288"/>
<rect x="-0.68644" y="0.68644" width="60.4067" height="60.4067" transform="matrix(-1 0 0 1 966.508 120.812)" stroke="white" stroke-width="1.37288"/>
<rect x="-0.68644" y="0.68644" width="60.4067" height="60.4067" transform="matrix(-1 0 0 1 906.102 120.812)" stroke="white" stroke-width="1.37288"/>
<rect x="-0.68644" y="0.68644" width="60.4067" height="60.4067" transform="matrix(-1 0 0 1 845.695 120.812)" stroke="white" stroke-width="1.37288"/>
<rect x="-0.68644" y="0.68644" width="60.4067" height="60.4067" transform="matrix(-1 0 0 1 785.288 120.812)" stroke="white" stroke-width="1.37288"/>
<rect x="-0.68644" y="0.68644" width="60.4067" height="60.4067" transform="matrix(-1 0 0 1 724.881 120.812)" stroke="white" stroke-width="1.37288"/>
<rect x="-0.68644" y="0.68644" width="60.4067" height="60.4067" transform="matrix(-1 0 0 1 664.475 120.812)" stroke="white" stroke-width="1.37288"/>
<path d="M544.348 121.499V152.389C544.348 168.69 557.563 181.905 573.864 181.905H604.754V121.499H544.348Z" stroke="white" stroke-width="1.37288"/>
<path d="M483.941 121.499V181.905H514.831C531.133 181.905 544.348 168.69 544.348 152.389V121.499H483.941Z" stroke="white" stroke-width="1.37288"/>
<rect x="-0.68644" y="0.68644" width="60.4067" height="60.4067" transform="matrix(-1 0 0 1 483.254 120.812)" stroke="white" stroke-width="1.37288"/>
<rect x="-0.68644" y="0.68644" width="60.4067" height="60.4067" transform="matrix(-1 0 0 1 422.848 120.812)" stroke="white" stroke-width="1.37288"/>
<rect x="-0.68644" y="0.68644" width="60.4067" height="60.4067" transform="matrix(-1 0 0 1 362.441 120.812)" stroke="white" stroke-width="1.37288"/>
<rect x="-0.68644" y="0.68644" width="60.4067" height="60.4067" transform="matrix(-1 0 0 1 302.034 120.812)" stroke="white" stroke-width="1.37288"/>
<rect x="-0.68644" y="0.68644" width="60.4067" height="60.4067" transform="matrix(-1 0 0 1 241.627 120.812)" stroke="white" stroke-width="1.37288"/>
<rect x="-0.68644" y="0.68644" width="60.4067" height="60.4067" transform="matrix(-1 0 0 1 181.221 120.812)" stroke="white" stroke-width="1.37288"/>
<rect x="-0.68644" y="0.68644" width="60.4067" height="60.4067" transform="matrix(-1 0 0 1 120.814 120.812)" stroke="white" stroke-width="1.37288"/>
<rect x="-0.68644" y="0.68644" width="60.4067" height="60.4067" transform="matrix(-1 0 0 1 60.4074 120.812)" stroke="white" stroke-width="1.37288"/>
<rect x="-0.68644" y="0.68644" width="60.4067" height="60.4067" transform="matrix(-1 0 0 1 1933.02 181.221)" stroke="white" stroke-width="1.37288"/>
<rect x="-0.68644" y="0.68644" width="60.4067" height="60.4067" transform="matrix(-1 0 0 1 1872.61 181.221)" stroke="white" stroke-width="1.37288"/>
<rect x="-0.68644" y="0.68644" width="60.4067" height="60.4067" transform="matrix(-1 0 0 1 1812.2 181.221)" stroke="white" stroke-width="1.37288"/>
<rect x="-0.68644" y="0.68644" width="60.4067" height="60.4067" transform="matrix(-1 0 0 1 1751.8 181.221)" stroke="white" stroke-width="1.37288"/>
<path d="M1661.19 181.907C1644.88 181.907 1631.67 195.122 1631.67 211.424V242.313H1692.08V181.907H1661.19Z" stroke="white" stroke-width="1.37288"/>
<path d="M1602.15 181.907H1571.26V242.313H1631.67V211.424C1631.67 195.122 1618.45 181.907 1602.15 181.907Z" stroke="white" stroke-width="1.37288"/>
<rect x="-0.68644" y="0.68644" width="60.4067" height="60.4067" transform="matrix(-1 0 0 1 1570.58 181.221)" stroke="white" stroke-width="1.37288"/>
<rect x="-0.68644" y="0.68644" width="60.4067" height="60.4067" transform="matrix(-1 0 0 1 1510.17 181.221)" stroke="white" stroke-width="1.37288"/>
<rect x="-0.68644" y="0.68644" width="60.4067" height="60.4067" transform="matrix(-1 0 0 1 1449.76 181.221)" stroke="white" stroke-width="1.37288"/>
<rect x="-0.68644" y="0.68644" width="60.4067" height="60.4067" transform="matrix(-1 0 0 1 1389.36 181.221)" stroke="white" stroke-width="1.37288"/>
<rect x="-0.68644" y="0.68644" width="60.4067" height="60.4067" transform="matrix(-1 0 0 1 1328.95 181.221)" stroke="white" stroke-width="1.37288"/>
<rect x="-0.68644" y="0.68644" width="60.4067" height="60.4067" transform="matrix(-1 0 0 1 1268.54 181.221)" stroke="white" stroke-width="1.37288"/>
<rect x="-0.68644" y="0.68644" width="60.4067" height="60.4067" transform="matrix(-1 0 0 1 1208.13 181.221)" stroke="white" stroke-width="1.37288"/>
<path d="M1117.53 181.907C1101.22 181.907 1088.01 195.122 1088.01 211.424V242.313H1148.42V181.907H1117.53Z" stroke="white" stroke-width="1.37288"/>
<path d="M1058.49 181.907H1027.6V242.313H1088.01V211.424C1088.01 195.122 1074.79 181.907 1058.49 181.907Z" stroke="white" stroke-width="1.37288"/>
<rect x="-0.68644" y="0.68644" width="60.4067" height="60.4067" transform="matrix(-1 0 0 1 1026.92 181.221)" stroke="white" stroke-width="1.37288"/>
<rect x="-0.68644" y="0.68644" width="60.4067" height="60.4067" transform="matrix(-1 0 0 1 966.508 181.221)" stroke="white" stroke-width="1.37288"/>
<rect x="-0.68644" y="0.68644" width="60.4067" height="60.4067" transform="matrix(-1 0 0 1 906.102 181.221)" stroke="white" stroke-width="1.37288"/>
<rect x="-0.68644" y="0.68644" width="60.4067" height="60.4067" transform="matrix(-1 0 0 1 845.695 181.221)" stroke="white" stroke-width="1.37288"/>
<rect x="-0.68644" y="0.68644" width="60.4067" height="60.4067" transform="matrix(-1 0 0 1 785.288 181.221)" stroke="white" stroke-width="1.37288"/>
<rect x="-0.68644" y="0.68644" width="60.4067" height="60.4067" transform="matrix(-1 0 0 1 724.881 181.221)" stroke="white" stroke-width="1.37288"/>
<rect x="-0.68644" y="0.68644" width="60.4067" height="60.4067" transform="matrix(-1 0 0 1 664.475 181.221)" stroke="white" stroke-width="1.37288"/>
<path d="M573.864 181.907C557.563 181.907 544.348 195.122 544.348 211.424V242.313H604.754V181.907H573.864Z" stroke="white" stroke-width="1.37288"/>
<path d="M514.831 181.907H483.941V242.313H544.348V211.424C544.348 195.122 531.133 181.907 514.831 181.907Z" stroke="white" stroke-width="1.37288"/>
<rect x="-0.68644" y="0.68644" width="60.4067" height="60.4067" transform="matrix(-1 0 0 1 483.254 181.221)" stroke="white" stroke-width="1.37288"/>
<rect x="-0.68644" y="0.68644" width="60.4067" height="60.4067" transform="matrix(-1 0 0 1 422.848 181.221)" stroke="white" stroke-width="1.37288"/>
<rect x="-0.68644" y="0.68644" width="60.4067" height="60.4067" transform="matrix(-1 0 0 1 362.441 181.221)" stroke="white" stroke-width="1.37288"/>
<rect x="-0.68644" y="0.68644" width="60.4067" height="60.4067" transform="matrix(-1 0 0 1 302.034 181.221)" stroke="white" stroke-width="1.37288"/>
<rect x="-0.68644" y="0.68644" width="60.4067" height="60.4067" transform="matrix(-1 0 0 1 241.627 181.221)" stroke="white" stroke-width="1.37288"/>
<rect x="-0.68644" y="0.68644" width="60.4067" height="60.4067" transform="matrix(-1 0 0 1 181.221 181.221)" stroke="white" stroke-width="1.37288"/>
<rect x="-0.68644" y="0.68644" width="60.4067" height="60.4067" transform="matrix(-1 0 0 1 120.814 181.221)" stroke="white" stroke-width="1.37288"/>
<rect x="-0.68644" y="0.68644" width="60.4067" height="60.4067" transform="matrix(-1 0 0 1 60.4074 181.221)" stroke="white" stroke-width="1.37288"/>
<rect x="-0.68644" y="0.68644" width="60.4067" height="60.4067" transform="matrix(-1 0 0 1 1933.02 241.627)" stroke="white" stroke-width="1.37288"/>
<rect x="-0.68644" y="0.68644" width="60.4067" height="60.4067" transform="matrix(-1 0 0 1 1872.61 241.627)" stroke="white" stroke-width="1.37288"/>
<rect x="-0.68644" y="0.68644" width="60.4067" height="60.4067" transform="matrix(-1 0 0 1 1812.2 241.627)" stroke="white" stroke-width="1.37288"/>
<rect x="-0.68644" y="0.68644" width="60.4067" height="60.4067" transform="matrix(-1 0 0 1 1751.8 241.627)" stroke="white" stroke-width="1.37288"/>
<rect x="-0.68644" y="0.68644" width="60.4067" height="60.4067" transform="matrix(-1 0 0 1 1691.39 241.627)" stroke="white" stroke-width="1.37288"/>
<rect x="-0.68644" y="0.68644" width="60.4067" height="60.4067" transform="matrix(-1 0 0 1 1630.98 241.627)" stroke="white" stroke-width="1.37288"/>
<rect x="-0.68644" y="0.68644" width="60.4067" height="60.4067" transform="matrix(-1 0 0 1 1570.58 241.627)" stroke="white" stroke-width="1.37288"/>
<rect x="-0.68644" y="0.68644" width="60.4067" height="60.4067" transform="matrix(-1 0 0 1 1510.17 241.627)" stroke="white" stroke-width="1.37288"/>
<rect x="-0.68644" y="0.68644" width="60.4067" height="60.4067" transform="matrix(-1 0 0 1 1449.76 241.627)" stroke="white" stroke-width="1.37288"/>
<rect x="-0.68644" y="0.68644" width="60.4067" height="60.4067" transform="matrix(-1 0 0 1 1389.36 241.627)" stroke="white" stroke-width="1.37288"/>
<rect x="-0.68644" y="0.68644" width="60.4067" height="60.4067" transform="matrix(-1 0 0 1 1328.95 241.627)" stroke="white" stroke-width="1.37288"/>
<rect x="-0.68644" y="0.68644" width="60.4067" height="60.4067" transform="matrix(-1 0 0 1 1268.54 241.627)" stroke="white" stroke-width="1.37288"/>
<rect x="-0.68644" y="0.68644" width="60.4067" height="60.4067" transform="matrix(-1 0 0 1 1208.13 241.627)" stroke="white" stroke-width="1.37288"/>
<rect x="-0.68644" y="0.68644" width="60.4067" height="60.4067" transform="matrix(-1 0 0 1 1147.73 241.627)" stroke="white" stroke-width="1.37288"/>
<rect x="-0.68644" y="0.68644" width="60.4067" height="60.4067" transform="matrix(-1 0 0 1 1087.32 241.627)" stroke="white" stroke-width="1.37288"/>
<rect x="-0.68644" y="0.68644" width="60.4067" height="60.4067" transform="matrix(-1 0 0 1 1026.92 241.627)" stroke="white" stroke-width="1.37288"/>
<rect x="-0.68644" y="0.68644" width="60.4067" height="60.4067" transform="matrix(-1 0 0 1 966.508 241.627)" stroke="white" stroke-width="1.37288"/>
<rect x="-0.68644" y="0.68644" width="60.4067" height="60.4067" transform="matrix(-1 0 0 1 906.102 241.627)" stroke="white" stroke-width="1.37288"/>
<rect x="-0.68644" y="0.68644" width="60.4067" height="60.4067" transform="matrix(-1 0 0 1 845.695 241.627)" stroke="white" stroke-width="1.37288"/>
<rect x="-0.68644" y="0.68644" width="60.4067" height="60.4067" transform="matrix(-1 0 0 1 785.288 241.627)" stroke="white" stroke-width="1.37288"/>
<rect x="-0.68644" y="0.68644" width="60.4067" height="60.4067" transform="matrix(-1 0 0 1 724.881 241.627)" stroke="white" stroke-width="1.37288"/>
<rect x="-0.68644" y="0.68644" width="60.4067" height="60.4067" transform="matrix(-1 0 0 1 664.475 241.627)" stroke="white" stroke-width="1.37288"/>
<rect x="-0.68644" y="0.68644" width="60.4067" height="60.4067" transform="matrix(-1 0 0 1 604.068 241.627)" stroke="white" stroke-width="1.37288"/>
<rect x="-0.68644" y="0.68644" width="60.4067" height="60.4067" transform="matrix(-1 0 0 1 543.661 241.627)" stroke="white" stroke-width="1.37288"/>
<rect x="-0.68644" y="0.68644" width="60.4067" height="60.4067" transform="matrix(-1 0 0 1 483.254 241.627)" stroke="white" stroke-width="1.37288"/>
<rect x="-0.68644" y="0.68644" width="60.4067" height="60.4067" transform="matrix(-1 0 0 1 422.848 241.627)" stroke="white" stroke-width="1.37288"/>
<rect x="-0.68644" y="0.68644" width="60.4067" height="60.4067" transform="matrix(-1 0 0 1 362.441 241.627)" stroke="white" stroke-width="1.37288"/>
<rect x="-0.68644" y="0.68644" width="60.4067" height="60.4067" transform="matrix(-1 0 0 1 302.034 241.627)" stroke="white" stroke-width="1.37288"/>
<rect x="-0.68644" y="0.68644" width="60.4067" height="60.4067" transform="matrix(-1 0 0 1 241.627 241.627)" stroke="white" stroke-width="1.37288"/>
<rect x="-0.68644" y="0.68644" width="60.4067" height="60.4067" transform="matrix(-1 0 0 1 181.221 241.627)" stroke="white" stroke-width="1.37288"/>
<rect x="-0.68644" y="0.68644" width="60.4067" height="60.4067" transform="matrix(-1 0 0 1 120.814 241.627)" stroke="white" stroke-width="1.37288"/>
<rect x="-0.68644" y="0.68644" width="60.4067" height="60.4067" transform="matrix(-1 0 0 1 60.4074 241.627)" stroke="white" stroke-width="1.37288"/>
<rect x="-0.68644" y="0.68644" width="60.4067" height="60.4067" transform="matrix(-1 0 0 1 1933.02 302.033)" stroke="white" stroke-width="1.37288"/>
<rect x="-0.68644" y="0.68644" width="60.4067" height="60.4067" transform="matrix(-1 0 0 1 1872.61 302.033)" stroke="white" stroke-width="1.37288"/>
<rect x="-0.68644" y="0.68644" width="60.4067" height="60.4067" transform="matrix(-1 0 0 1 1812.2 302.033)" stroke="white" stroke-width="1.37288"/>
<rect x="-0.68644" y="0.68644" width="60.4067" height="60.4067" transform="matrix(-1 0 0 1 1751.8 302.033)" stroke="white" stroke-width="1.37288"/>
<rect x="-0.68644" y="0.68644" width="60.4067" height="60.4067" transform="matrix(-1 0 0 1 1691.39 302.033)" stroke="white" stroke-width="1.37288"/>
<rect x="-0.68644" y="0.68644" width="60.4067" height="60.4067" transform="matrix(-1 0 0 1 1630.98 302.033)" stroke="white" stroke-width="1.37288"/>
<rect x="-0.68644" y="0.68644" width="60.4067" height="60.4067" transform="matrix(-1 0 0 1 1570.58 302.033)" stroke="white" stroke-width="1.37288"/>
<rect x="-0.68644" y="0.68644" width="60.4067" height="60.4067" transform="matrix(-1 0 0 1 1510.17 302.033)" stroke="white" stroke-width="1.37288"/>
<rect x="-0.68644" y="0.68644" width="60.4067" height="60.4067" transform="matrix(-1 0 0 1 1449.76 302.033)" stroke="white" stroke-width="1.37288"/>
<rect x="-0.68644" y="0.68644" width="60.4067" height="60.4067" transform="matrix(-1 0 0 1 1389.36 302.033)" stroke="white" stroke-width="1.37288"/>
<rect x="-0.68644" y="0.68644" width="60.4067" height="60.4067" transform="matrix(-1 0 0 1 1328.95 302.033)" stroke="white" stroke-width="1.37288"/>
<rect x="-0.68644" y="0.68644" width="60.4067" height="60.4067" transform="matrix(-1 0 0 1 1268.54 302.033)" stroke="white" stroke-width="1.37288"/>
<rect x="-0.68644" y="0.68644" width="60.4067" height="60.4067" transform="matrix(-1 0 0 1 1208.13 302.033)" stroke="white" stroke-width="1.37288"/>
<rect x="-0.68644" y="0.68644" width="60.4067" height="60.4067" transform="matrix(-1 0 0 1 1147.73 302.033)" stroke="white" stroke-width="1.37288"/>
<rect x="-0.68644" y="0.68644" width="60.4067" height="60.4067" transform="matrix(-1 0 0 1 1087.32 302.033)" stroke="white" stroke-width="1.37288"/>
<rect x="-0.68644" y="0.68644" width="60.4067" height="60.4067" transform="matrix(-1 0 0 1 1026.92 302.033)" stroke="white" stroke-width="1.37288"/>
<rect x="-0.68644" y="0.68644" width="60.4067" height="60.4067" transform="matrix(-1 0 0 1 966.508 302.033)" stroke="white" stroke-width="1.37288"/>
<rect x="-0.68644" y="0.68644" width="60.4067" height="60.4067" transform="matrix(-1 0 0 1 906.102 302.033)" stroke="white" stroke-width="1.37288"/>
<rect x="-0.68644" y="0.68644" width="60.4067" height="60.4067" transform="matrix(-1 0 0 1 845.695 302.033)" stroke="white" stroke-width="1.37288"/>
<rect x="-0.68644" y="0.68644" width="60.4067" height="60.4067" transform="matrix(-1 0 0 1 785.288 302.033)" stroke="white" stroke-width="1.37288"/>
<path d="M665.161 302.72V333.609C665.161 349.911 678.376 363.126 694.678 363.126H725.567V302.72H665.161Z" stroke="white" stroke-width="1.37288"/>
<path d="M604.755 302.72V363.126H635.645C651.946 363.126 665.161 349.911 665.161 333.609V302.72H604.755Z" stroke="white" stroke-width="1.37288"/>
<rect x="-0.68644" y="0.68644" width="60.4067" height="60.4067" transform="matrix(-1 0 0 1 604.068 302.033)" stroke="white" stroke-width="1.37288"/>
<rect x="-0.68644" y="0.68644" width="60.4067" height="60.4067" transform="matrix(-1 0 0 1 543.661 302.033)" stroke="white" stroke-width="1.37288"/>
<rect x="-0.68644" y="0.68644" width="60.4067" height="60.4067" transform="matrix(-1 0 0 1 483.254 302.033)" stroke="white" stroke-width="1.37288"/>
<rect x="-0.68644" y="0.68644" width="60.4067" height="60.4067" transform="matrix(-1 0 0 1 422.848 302.033)" stroke="white" stroke-width="1.37288"/>
<rect x="-0.68644" y="0.68644" width="60.4067" height="60.4067" transform="matrix(-1 0 0 1 362.441 302.033)" stroke="white" stroke-width="1.37288"/>
<rect x="-0.68644" y="0.68644" width="60.4067" height="60.4067" transform="matrix(-1 0 0 1 302.034 302.033)" stroke="white" stroke-width="1.37288"/>
<rect x="-0.68644" y="0.68644" width="60.4067" height="60.4067" transform="matrix(-1 0 0 1 241.627 302.033)" stroke="white" stroke-width="1.37288"/>
<rect x="-0.68644" y="0.68644" width="60.4067" height="60.4067" transform="matrix(-1 0 0 1 181.221 302.033)" stroke="white" stroke-width="1.37288"/>
<rect x="-0.68644" y="0.68644" width="60.4067" height="60.4067" transform="matrix(-1 0 0 1 120.814 302.033)" stroke="white" stroke-width="1.37288"/>
<rect x="-0.68644" y="0.68644" width="60.4067" height="60.4067" transform="matrix(-1 0 0 1 60.4074 302.033)" stroke="white" stroke-width="1.37288"/>
<rect x="-0.68644" y="0.68644" width="60.4067" height="60.4067" transform="matrix(-1 0 0 1 1933.02 362.441)" stroke="white" stroke-width="1.37288"/>
<rect x="-0.68644" y="0.68644" width="60.4067" height="60.4067" transform="matrix(-1 0 0 1 1872.61 362.441)" stroke="white" stroke-width="1.37288"/>
<rect x="-0.68644" y="0.68644" width="60.4067" height="60.4067" transform="matrix(-1 0 0 1 1812.2 362.441)" stroke="white" stroke-width="1.37288"/>
<rect x="-0.68644" y="0.68644" width="60.4067" height="60.4067" transform="matrix(-1 0 0 1 1751.8 362.441)" stroke="white" stroke-width="1.37288"/>
<rect x="-0.68644" y="0.68644" width="60.4067" height="60.4067" transform="matrix(-1 0 0 1 1691.39 362.441)" stroke="white" stroke-width="1.37288"/>
<rect x="-0.68644" y="0.68644" width="60.4067" height="60.4067" transform="matrix(-1 0 0 1 1630.98 362.441)" stroke="white" stroke-width="1.37288"/>
<rect x="-0.68644" y="0.68644" width="60.4067" height="60.4067" transform="matrix(-1 0 0 1 1570.58 362.441)" stroke="white" stroke-width="1.37288"/>
<rect x="-0.68644" y="0.68644" width="60.4067" height="60.4067" transform="matrix(-1 0 0 1 1510.17 362.441)" stroke="white" stroke-width="1.37288"/>
<path d="M1390.04 363.128V394.018C1390.04 410.319 1403.26 423.534 1419.56 423.534H1450.45V363.128H1390.04Z" stroke="white" stroke-width="1.37288"/>
<path d="M1329.64 363.128V423.534H1360.53C1376.83 423.534 1390.04 410.319 1390.04 394.018V363.128H1329.64Z" stroke="white" stroke-width="1.37288"/>
<rect x="-0.68644" y="0.68644" width="60.4067" height="60.4067" transform="matrix(-1 0 0 1 1328.95 362.441)" stroke="white" stroke-width="1.37288"/>
<rect x="-0.68644" y="0.68644" width="60.4067" height="60.4067" transform="matrix(-1 0 0 1 1268.54 362.441)" stroke="white" stroke-width="1.37288"/>
<rect x="-0.68644" y="0.68644" width="60.4067" height="60.4067" transform="matrix(-1 0 0 1 1208.13 362.441)" stroke="white" stroke-width="1.37288"/>
<rect x="-0.68644" y="0.68644" width="60.4067" height="60.4067" transform="matrix(-1 0 0 1 1147.73 362.441)" stroke="white" stroke-width="1.37288"/>
<rect x="-0.68644" y="0.68644" width="60.4067" height="60.4067" transform="matrix(-1 0 0 1 1087.32 362.441)" stroke="white" stroke-width="1.37288"/>
<rect x="-0.68644" y="0.68644" width="60.4067" height="60.4067" transform="matrix(-1 0 0 1 1026.92 362.441)" stroke="white" stroke-width="1.37288"/>
<rect x="-0.68644" y="0.68644" width="60.4067" height="60.4067" transform="matrix(-1 0 0 1 966.508 362.441)" stroke="white" stroke-width="1.37288"/>
<rect x="-0.68644" y="0.68644" width="60.4067" height="60.4067" transform="matrix(-1 0 0 1 906.102 362.441)" stroke="white" stroke-width="1.37288"/>
<rect x="-0.68644" y="0.68644" width="60.4067" height="60.4067" transform="matrix(-1 0 0 1 845.695 362.441)" stroke="white" stroke-width="1.37288"/>
<rect x="-0.68644" y="0.68644" width="60.4067" height="60.4067" transform="matrix(-1 0 0 1 785.288 362.441)" stroke="white" stroke-width="1.37288"/>
<path d="M694.678 363.128C678.376 363.128 665.161 376.343 665.161 392.645V423.534H725.567V363.128H694.678Z" stroke="white" stroke-width="1.37288"/>
<path d="M635.645 363.128H604.755V423.534H665.161V392.645C665.161 376.343 651.946 363.128 635.645 363.128Z" stroke="white" stroke-width="1.37288"/>
<rect x="-0.68644" y="0.68644" width="60.4067" height="60.4067" transform="matrix(-1 0 0 1 604.068 362.441)" stroke="white" stroke-width="1.37288"/>
<rect x="-0.68644" y="0.68644" width="60.4067" height="60.4067" transform="matrix(-1 0 0 1 543.661 362.441)" stroke="white" stroke-width="1.37288"/>
<rect x="-0.68644" y="0.68644" width="60.4067" height="60.4067" transform="matrix(-1 0 0 1 483.254 362.441)" stroke="white" stroke-width="1.37288"/>
<rect x="-0.68644" y="0.68644" width="60.4067" height="60.4067" transform="matrix(-1 0 0 1 422.848 362.441)" stroke="white" stroke-width="1.37288"/>
<rect x="-0.68644" y="0.68644" width="60.4067" height="60.4067" transform="matrix(-1 0 0 1 362.441 362.441)" stroke="white" stroke-width="1.37288"/>
<rect x="-0.68644" y="0.68644" width="60.4067" height="60.4067" transform="matrix(-1 0 0 1 302.034 362.441)" stroke="white" stroke-width="1.37288"/>
<path d="M181.907 363.128V394.018C181.907 410.319 195.122 423.534 211.424 423.534H242.313V363.128H181.907Z" stroke="white" stroke-width="1.37288"/>
<path d="M121.501 363.128V423.534H152.391C168.692 423.534 181.907 410.319 181.907 394.018V363.128H121.501Z" stroke="white" stroke-width="1.37288"/>
<rect x="-0.68644" y="0.68644" width="60.4067" height="60.4067" transform="matrix(-1 0 0 1 120.814 362.441)" stroke="white" stroke-width="1.37288"/>
<rect x="-0.68644" y="0.68644" width="60.4067" height="60.4067" transform="matrix(-1 0 0 1 60.4074 362.441)" stroke="white" stroke-width="1.37288"/>
<rect x="-0.68644" y="0.68644" width="60.4067" height="60.4067" transform="matrix(-1 0 0 1 1933.02 422.848)" stroke="white" stroke-width="1.37288"/>
<rect x="-0.68644" y="0.68644" width="60.4067" height="60.4067" transform="matrix(-1 0 0 1 1872.61 422.848)" stroke="white" stroke-width="1.37288"/>
<rect x="-0.68644" y="0.68644" width="60.4067" height="60.4067" transform="matrix(-1 0 0 1 1812.2 422.848)" stroke="white" stroke-width="1.37288"/>
<rect x="-0.68644" y="0.68644" width="60.4067" height="60.4067" transform="matrix(-1 0 0 1 1751.8 422.848)" stroke="white" stroke-width="1.37288"/>
<rect x="-0.68644" y="0.68644" width="60.4067" height="60.4067" transform="matrix(-1 0 0 1 1691.39 422.848)" stroke="white" stroke-width="1.37288"/>
<rect x="-0.68644" y="0.68644" width="60.4067" height="60.4067" transform="matrix(-1 0 0 1 1630.98 422.848)" stroke="white" stroke-width="1.37288"/>
<rect x="-0.68644" y="0.68644" width="60.4067" height="60.4067" transform="matrix(-1 0 0 1 1570.58 422.848)" stroke="white" stroke-width="1.37288"/>
<rect x="-0.68644" y="0.68644" width="60.4067" height="60.4067" transform="matrix(-1 0 0 1 1510.17 422.848)" stroke="white" stroke-width="1.37288"/>
<path d="M1419.56 423.534C1403.26 423.534 1390.04 436.749 1390.04 453.051V483.94H1450.45V423.534H1419.56Z" stroke="white" stroke-width="1.37288"/>
<path d="M1360.53 423.534H1329.64V483.94H1390.04V453.051C1390.04 436.749 1376.83 423.534 1360.53 423.534Z" stroke="white" stroke-width="1.37288"/>
<rect x="-0.68644" y="0.68644" width="60.4067" height="60.4067" transform="matrix(-1 0 0 1 1328.95 422.848)" stroke="white" stroke-width="1.37288"/>
<rect x="-0.68644" y="0.68644" width="60.4067" height="60.4067" transform="matrix(-1 0 0 1 1268.54 422.848)" stroke="white" stroke-width="1.37288"/>
<rect x="-0.68644" y="0.68644" width="60.4067" height="60.4067" transform="matrix(-1 0 0 1 1208.13 422.848)" stroke="white" stroke-width="1.37288"/>
<rect x="-0.68644" y="0.68644" width="60.4067" height="60.4067" transform="matrix(-1 0 0 1 1147.73 422.848)" stroke="white" stroke-width="1.37288"/>
<rect x="-0.68644" y="0.68644" width="60.4067" height="60.4067" transform="matrix(-1 0 0 1 1087.32 422.848)" stroke="white" stroke-width="1.37288"/>
<rect x="-0.68644" y="0.68644" width="60.4067" height="60.4067" transform="matrix(-1 0 0 1 1026.92 422.848)" stroke="white" stroke-width="1.37288"/>
<rect x="-0.68644" y="0.68644" width="60.4067" height="60.4067" transform="matrix(-1 0 0 1 966.508 422.848)" stroke="white" stroke-width="1.37288"/>
<rect x="-0.68644" y="0.68644" width="60.4067" height="60.4067" transform="matrix(-1 0 0 1 906.102 422.848)" stroke="white" stroke-width="1.37288"/>
<rect x="-0.68644" y="0.68644" width="60.4067" height="60.4067" transform="matrix(-1 0 0 1 845.695 422.848)" stroke="white" stroke-width="1.37288"/>
<rect x="-0.68644" y="0.68644" width="60.4067" height="60.4067" transform="matrix(-1 0 0 1 785.288 422.848)" stroke="white" stroke-width="1.37288"/>
<rect x="-0.68644" y="0.68644" width="60.4067" height="60.4067" transform="matrix(-1 0 0 1 724.881 422.848)" stroke="white" stroke-width="1.37288"/>
<rect x="-0.68644" y="0.68644" width="60.4067" height="60.4067" transform="matrix(-1 0 0 1 664.475 422.848)" stroke="white" stroke-width="1.37288"/>
<rect x="-0.68644" y="0.68644" width="60.4067" height="60.4067" transform="matrix(-1 0 0 1 604.068 422.848)" stroke="white" stroke-width="1.37288"/>
<rect x="-0.68644" y="0.68644" width="60.4067" height="60.4067" transform="matrix(-1 0 0 1 543.661 422.848)" stroke="white" stroke-width="1.37288"/>
<rect x="-0.68644" y="0.68644" width="60.4067" height="60.4067" transform="matrix(-1 0 0 1 483.254 422.848)" stroke="white" stroke-width="1.37288"/>
<rect x="-0.68644" y="0.68644" width="60.4067" height="60.4067" transform="matrix(-1 0 0 1 422.848 422.848)" stroke="white" stroke-width="1.37288"/>
<rect x="-0.68644" y="0.68644" width="60.4067" height="60.4067" transform="matrix(-1 0 0 1 362.441 422.848)" stroke="white" stroke-width="1.37288"/>
<rect x="-0.68644" y="0.68644" width="60.4067" height="60.4067" transform="matrix(-1 0 0 1 302.034 422.848)" stroke="white" stroke-width="1.37288"/>
<path d="M211.424 423.534C195.122 423.534 181.907 436.749 181.907 453.051V483.94H242.313V423.534H211.424Z" stroke="white" stroke-width="1.37288"/>
<path d="M152.391 423.534H121.501V483.94H181.907V453.051C181.907 436.749 168.692 423.534 152.391 423.534Z" stroke="white" stroke-width="1.37288"/>
<rect x="-0.68644" y="0.68644" width="60.4067" height="60.4067" transform="matrix(-1 0 0 1 120.814 422.848)" stroke="white" stroke-width="1.37288"/>
<rect x="-0.68644" y="0.68644" width="60.4067" height="60.4067" transform="matrix(-1 0 0 1 60.4074 422.848)" stroke="white" stroke-width="1.37288"/>
<rect x="-0.68644" y="0.68644" width="60.4067" height="60.4067" transform="matrix(-1 0 0 1 1933.02 483.254)" stroke="white" stroke-width="1.37288"/>
<rect x="-0.68644" y="0.68644" width="60.4067" height="60.4067" transform="matrix(-1 0 0 1 1872.61 483.254)" stroke="white" stroke-width="1.37288"/>
<rect x="-0.68644" y="0.68644" width="60.4067" height="60.4067" transform="matrix(-1 0 0 1 1812.2 483.254)" stroke="white" stroke-width="1.37288"/>
<rect x="-0.68644" y="0.68644" width="60.4067" height="60.4067" transform="matrix(-1 0 0 1 1751.8 483.254)" stroke="white" stroke-width="1.37288"/>
<path d="M1631.67 483.94V514.83C1631.67 531.132 1644.88 544.347 1661.19 544.347H1692.08V483.94H1631.67Z" stroke="white" stroke-width="1.37288"/>
<path d="M1571.26 483.94V544.347H1602.15C1618.45 544.347 1631.67 531.132 1631.67 514.83V483.94H1571.26Z" stroke="white" stroke-width="1.37288"/>
<rect x="-0.68644" y="0.68644" width="60.4067" height="60.4067" transform="matrix(-1 0 0 1 1570.58 483.254)" stroke="white" stroke-width="1.37288"/>
<rect x="-0.68644" y="0.68644" width="60.4067" height="60.4067" transform="matrix(-1 0 0 1 1510.17 483.254)" stroke="white" stroke-width="1.37288"/>
<rect x="-0.68644" y="0.68644" width="60.4067" height="60.4067" transform="matrix(-1 0 0 1 1449.76 483.254)" stroke="white" stroke-width="1.37288"/>
<rect x="-0.68644" y="0.68644" width="60.4067" height="60.4067" transform="matrix(-1 0 0 1 1389.36 483.254)" stroke="white" stroke-width="1.37288"/>
<rect x="-0.68644" y="0.68644" width="60.4067" height="60.4067" transform="matrix(-1 0 0 1 1328.95 483.254)" stroke="white" stroke-width="1.37288"/>
<rect x="-0.68644" y="0.68644" width="60.4067" height="60.4067" transform="matrix(-1 0 0 1 1268.54 483.254)" stroke="white" stroke-width="1.37288"/>
<rect x="-0.68644" y="0.68644" width="60.4067" height="60.4067" transform="matrix(-1 0 0 1 1208.13 483.254)" stroke="white" stroke-width="1.37288"/>
<path d="M1088.01 483.94V514.83C1088.01 531.132 1101.22 544.347 1117.53 544.347H1148.42V483.94H1088.01Z" stroke="white" stroke-width="1.37288"/>
<path d="M1027.6 483.94V544.347H1058.49C1074.79 544.347 1088.01 531.132 1088.01 514.83V483.94H1027.6Z" stroke="white" stroke-width="1.37288"/>
<rect x="-0.68644" y="0.68644" width="60.4067" height="60.4067" transform="matrix(-1 0 0 1 1026.92 483.254)" stroke="white" stroke-width="1.37288"/>
<rect x="-0.68644" y="0.68644" width="60.4067" height="60.4067" transform="matrix(-1 0 0 1 966.508 483.254)" stroke="white" stroke-width="1.37288"/>
<rect x="-0.68644" y="0.68644" width="60.4067" height="60.4067" transform="matrix(-1 0 0 1 906.102 483.254)" stroke="white" stroke-width="1.37288"/>
<rect x="-0.68644" y="0.68644" width="60.4067" height="60.4067" transform="matrix(-1 0 0 1 845.695 483.254)" stroke="white" stroke-width="1.37288"/>
<rect x="-0.68644" y="0.68644" width="60.4067" height="60.4067" transform="matrix(-1 0 0 1 785.288 483.254)" stroke="white" stroke-width="1.37288"/>
<rect x="-0.68644" y="0.68644" width="60.4067" height="60.4067" transform="matrix(-1 0 0 1 724.881 483.254)" stroke="white" stroke-width="1.37288"/>
<path d="M604.755 483.94V514.83C604.755 531.132 617.97 544.347 634.271 544.347H665.161V483.94H604.755Z" stroke="white" stroke-width="1.37288"/>
<path d="M544.348 483.94V544.347H575.237C591.539 544.347 604.754 531.132 604.754 514.83V483.94H544.348Z" stroke="white" stroke-width="1.37288"/>
<rect x="-0.68644" y="0.68644" width="60.4067" height="60.4067" transform="matrix(-1 0 0 1 543.661 483.254)" stroke="white" stroke-width="1.37288"/>
<rect x="-0.68644" y="0.68644" width="60.4067" height="60.4067" transform="matrix(-1 0 0 1 483.254 483.254)" stroke="white" stroke-width="1.37288"/>
<rect x="-0.68644" y="0.68644" width="60.4067" height="60.4067" transform="matrix(-1 0 0 1 422.848 483.254)" stroke="white" stroke-width="1.37288"/>
<rect x="-0.68644" y="0.68644" width="60.4067" height="60.4067" transform="matrix(-1 0 0 1 362.441 483.254)" stroke="white" stroke-width="1.37288"/>
<rect x="-0.68644" y="0.68644" width="60.4067" height="60.4067" transform="matrix(-1 0 0 1 302.034 483.254)" stroke="white" stroke-width="1.37288"/>
<rect x="-0.68644" y="0.68644" width="60.4067" height="60.4067" transform="matrix(-1 0 0 1 241.627 483.254)" stroke="white" stroke-width="1.37288"/>
<rect x="-0.68644" y="0.68644" width="60.4067" height="60.4067" transform="matrix(-1 0 0 1 181.221 483.254)" stroke="white" stroke-width="1.37288"/>
<rect x="-0.68644" y="0.68644" width="60.4067" height="60.4067" transform="matrix(-1 0 0 1 120.814 483.254)" stroke="white" stroke-width="1.37288"/>
<rect x="-0.68644" y="0.68644" width="60.4067" height="60.4067" transform="matrix(-1 0 0 1 60.4074 483.254)" stroke="white" stroke-width="1.37288"/>
<rect x="-0.68644" y="0.68644" width="60.4067" height="60.4067" transform="matrix(-1 0 0 1 1933.02 543.66)" stroke="white" stroke-width="1.37288"/>
<rect x="-0.68644" y="0.68644" width="60.4067" height="60.4067" transform="matrix(-1 0 0 1 1872.61 543.66)" stroke="white" stroke-width="1.37288"/>
<rect x="-0.68644" y="0.68644" width="60.4067" height="60.4067" transform="matrix(-1 0 0 1 1812.2 543.66)" stroke="white" stroke-width="1.37288"/>
<rect x="-0.68644" y="0.68644" width="60.4067" height="60.4067" transform="matrix(-1 0 0 1 1751.8 543.66)" stroke="white" stroke-width="1.37288"/>
<path d="M1661.19 544.347C1644.88 544.347 1631.67 557.562 1631.67 573.863V604.753H1692.08V544.347H1661.19Z" stroke="white" stroke-width="1.37288"/>
<path d="M1602.15 544.347H1571.26V604.753H1631.67V573.863C1631.67 557.562 1618.45 544.347 1602.15 544.347Z" stroke="white" stroke-width="1.37288"/>
<rect x="-0.68644" y="0.68644" width="60.4067" height="60.4067" transform="matrix(-1 0 0 1 1570.58 543.66)" stroke="white" stroke-width="1.37288"/>
<rect x="-0.68644" y="0.68644" width="60.4067" height="60.4067" transform="matrix(-1 0 0 1 1510.17 543.66)" stroke="white" stroke-width="1.37288"/>
<rect x="-0.68644" y="0.68644" width="60.4067" height="60.4067" transform="matrix(-1 0 0 1 1449.76 543.66)" stroke="white" stroke-width="1.37288"/>
<rect x="-0.68644" y="0.68644" width="60.4067" height="60.4067" transform="matrix(-1 0 0 1 1389.36 543.66)" stroke="white" stroke-width="1.37288"/>
<rect x="-0.68644" y="0.68644" width="60.4067" height="60.4067" transform="matrix(-1 0 0 1 1328.95 543.66)" stroke="white" stroke-width="1.37288"/>
<rect x="-0.68644" y="0.68644" width="60.4067" height="60.4067" transform="matrix(-1 0 0 1 1268.54 543.66)" stroke="white" stroke-width="1.37288"/>
<rect x="-0.68644" y="0.68644" width="60.4067" height="60.4067" transform="matrix(-1 0 0 1 1208.13 543.66)" stroke="white" stroke-width="1.37288"/>
<path d="M1117.53 544.347C1101.22 544.347 1088.01 557.562 1088.01 573.863V604.753H1148.42V544.347H1117.53Z" stroke="white" stroke-width="1.37288"/>
<path d="M1058.49 544.347H1027.6V604.753H1088.01V573.863C1088.01 557.562 1074.79 544.347 1058.49 544.347Z" stroke="white" stroke-width="1.37288"/>
<rect x="-0.68644" y="0.68644" width="60.4067" height="60.4067" transform="matrix(-1 0 0 1 1026.92 543.66)" stroke="white" stroke-width="1.37288"/>
<rect x="-0.68644" y="0.68644" width="60.4067" height="60.4067" transform="matrix(-1 0 0 1 966.508 543.66)" stroke="white" stroke-width="1.37288"/>
<rect x="-0.68644" y="0.68644" width="60.4067" height="60.4067" transform="matrix(-1 0 0 1 906.101 543.66)" stroke="white" stroke-width="1.37288"/>
<rect x="-0.68644" y="0.68644" width="60.4067" height="60.4067" transform="matrix(-1 0 0 1 845.695 543.66)" stroke="white" stroke-width="1.37288"/>
<rect x="-0.68644" y="0.68644" width="60.4067" height="60.4067" transform="matrix(-1 0 0 1 785.287 543.66)" stroke="white" stroke-width="1.37288"/>
<rect x="-0.68644" y="0.68644" width="60.4067" height="60.4067" transform="matrix(-1 0 0 1 724.881 543.66)" stroke="white" stroke-width="1.37288"/>
<path d="M634.271 544.347C617.97 544.347 604.755 557.562 604.755 573.863V604.753H665.161V544.347H634.271Z" stroke="white" stroke-width="1.37288"/>
<path d="M575.237 544.347H544.348V604.753H604.754V573.863C604.754 557.562 591.539 544.347 575.237 544.347Z" stroke="white" stroke-width="1.37288"/>
<rect x="-0.68644" y="0.68644" width="60.4067" height="60.4067" transform="matrix(-1 0 0 1 543.661 543.66)" stroke="white" stroke-width="1.37288"/>
<rect x="-0.68644" y="0.68644" width="60.4067" height="60.4067" transform="matrix(-1 0 0 1 483.254 543.66)" stroke="white" stroke-width="1.37288"/>
<rect x="-0.68644" y="0.68644" width="60.4067" height="60.4067" transform="matrix(-1 0 0 1 422.847 543.66)" stroke="white" stroke-width="1.37288"/>
<rect x="-0.68644" y="0.68644" width="60.4067" height="60.4067" transform="matrix(-1 0 0 1 362.442 543.66)" stroke="white" stroke-width="1.37288"/>
<rect x="-0.68644" y="0.68644" width="60.4067" height="60.4067" transform="matrix(-1 0 0 1 302.034 543.66)" stroke="white" stroke-width="1.37288"/>
<rect x="-0.68644" y="0.68644" width="60.4067" height="60.4067" transform="matrix(-1 0 0 1 241.627 543.66)" stroke="white" stroke-width="1.37288"/>
<rect x="-0.68644" y="0.68644" width="60.4067" height="60.4067" transform="matrix(-1 0 0 1 181.221 543.66)" stroke="white" stroke-width="1.37288"/>
<rect x="-0.68644" y="0.68644" width="60.4067" height="60.4067" transform="matrix(-1 0 0 1 120.814 543.66)" stroke="white" stroke-width="1.37288"/>
<rect x="-0.68644" y="0.68644" width="60.4067" height="60.4067" transform="matrix(-1 0 0 1 60.4074 543.66)" stroke="white" stroke-width="1.37288"/>
<rect x="-0.68644" y="0.68644" width="60.4067" height="60.4067" transform="matrix(-1 0 0 1 1933.02 604.066)" stroke="white" stroke-width="1.37288"/>
<rect x="-0.68644" y="0.68644" width="60.4067" height="60.4067" transform="matrix(-1 0 0 1 1872.61 604.066)" stroke="white" stroke-width="1.37288"/>
<rect x="-0.68644" y="0.68644" width="60.4067" height="60.4067" transform="matrix(-1 0 0 1 1812.2 604.066)" stroke="white" stroke-width="1.37288"/>
<rect x="-0.68644" y="0.68644" width="60.4067" height="60.4067" transform="matrix(-1 0 0 1 1751.8 604.066)" stroke="white" stroke-width="1.37288"/>
<rect x="-0.68644" y="0.68644" width="60.4067" height="60.4067" transform="matrix(-1 0 0 1 1691.39 604.066)" stroke="white" stroke-width="1.37288"/>
<rect x="-0.68644" y="0.68644" width="60.4067" height="60.4067" transform="matrix(-1 0 0 1 1630.98 604.066)" stroke="white" stroke-width="1.37288"/>
<rect x="-0.68644" y="0.68644" width="60.4067" height="60.4067" transform="matrix(-1 0 0 1 1570.58 604.066)" stroke="white" stroke-width="1.37288"/>
<rect x="-0.68644" y="0.68644" width="60.4067" height="60.4067" transform="matrix(-1 0 0 1 1510.17 604.066)" stroke="white" stroke-width="1.37288"/>
<rect x="-0.68644" y="0.68644" width="60.4067" height="60.4067" transform="matrix(-1 0 0 1 1449.76 604.066)" stroke="white" stroke-width="1.37288"/>
<rect x="-0.68644" y="0.68644" width="60.4067" height="60.4067" transform="matrix(-1 0 0 1 1389.36 604.066)" stroke="white" stroke-width="1.37288"/>
<rect x="-0.68644" y="0.68644" width="60.4067" height="60.4067" transform="matrix(-1 0 0 1 1328.95 604.066)" stroke="white" stroke-width="1.37288"/>
<rect x="-0.68644" y="0.68644" width="60.4067" height="60.4067" transform="matrix(-1 0 0 1 1268.54 604.066)" stroke="white" stroke-width="1.37288"/>
<rect x="-0.68644" y="0.68644" width="60.4067" height="60.4067" transform="matrix(-1 0 0 1 1208.13 604.066)" stroke="white" stroke-width="1.37288"/>
<rect x="-0.68644" y="0.68644" width="60.4067" height="60.4067" transform="matrix(-1 0 0 1 1147.73 604.066)" stroke="white" stroke-width="1.37288"/>
<rect x="-0.68644" y="0.68644" width="60.4067" height="60.4067" transform="matrix(-1 0 0 1 1087.32 604.066)" stroke="white" stroke-width="1.37288"/>
<rect x="-0.68644" y="0.68644" width="60.4067" height="60.4067" transform="matrix(-1 0 0 1 1026.92 604.066)" stroke="white" stroke-width="1.37288"/>
<rect x="-0.68644" y="0.68644" width="60.4067" height="60.4067" transform="matrix(-1 0 0 1 966.508 604.066)" stroke="white" stroke-width="1.37288"/>
<rect x="-0.68644" y="0.68644" width="60.4067" height="60.4067" transform="matrix(-1 0 0 1 906.102 604.066)" stroke="white" stroke-width="1.37288"/>
<rect x="-0.68644" y="0.68644" width="60.4067" height="60.4067" transform="matrix(-1 0 0 1 845.695 604.066)" stroke="white" stroke-width="1.37288"/>
<rect x="-0.68644" y="0.68644" width="60.4067" height="60.4067" transform="matrix(-1 0 0 1 785.288 604.066)" stroke="white" stroke-width="1.37288"/>
<rect x="-0.68644" y="0.68644" width="60.4067" height="60.4067" transform="matrix(-1 0 0 1 724.881 604.066)" stroke="white" stroke-width="1.37288"/>
<rect x="-0.68644" y="0.68644" width="60.4067" height="60.4067" transform="matrix(-1 0 0 1 664.475 604.066)" stroke="white" stroke-width="1.37288"/>
<rect x="-0.68644" y="0.68644" width="60.4067" height="60.4067" transform="matrix(-1 0 0 1 604.068 604.066)" stroke="white" stroke-width="1.37288"/>
<rect x="-0.68644" y="0.68644" width="60.4067" height="60.4067" transform="matrix(-1 0 0 1 543.661 604.066)" stroke="white" stroke-width="1.37288"/>
<rect x="-0.68644" y="0.68644" width="60.4067" height="60.4067" transform="matrix(-1 0 0 1 483.254 604.066)" stroke="white" stroke-width="1.37288"/>
<rect x="-0.68644" y="0.68644" width="60.4067" height="60.4067" transform="matrix(-1 0 0 1 422.848 604.066)" stroke="white" stroke-width="1.37288"/>
<rect x="-0.68644" y="0.68644" width="60.4067" height="60.4067" transform="matrix(-1 0 0 1 362.441 604.066)" stroke="white" stroke-width="1.37288"/>
<rect x="-0.68644" y="0.68644" width="60.4067" height="60.4067" transform="matrix(-1 0 0 1 302.034 604.066)" stroke="white" stroke-width="1.37288"/>
<rect x="-0.68644" y="0.68644" width="60.4067" height="60.4067" transform="matrix(-1 0 0 1 241.627 604.066)" stroke="white" stroke-width="1.37288"/>
<rect x="-0.68644" y="0.68644" width="60.4067" height="60.4067" transform="matrix(-1 0 0 1 181.221 604.066)" stroke="white" stroke-width="1.37288"/>
<rect x="-0.68644" y="0.68644" width="60.4067" height="60.4067" transform="matrix(-1 0 0 1 120.814 604.066)" stroke="white" stroke-width="1.37288"/>
<rect x="-0.68644" y="0.68644" width="60.4067" height="60.4067" transform="matrix(-1 0 0 1 60.4074 604.066)" stroke="white" stroke-width="1.37288"/>
<rect x="-0.68644" y="0.68644" width="60.4067" height="60.4067" transform="matrix(-1 0 0 1 1933.02 664.475)" stroke="white" stroke-width="1.37288"/>
<rect x="-0.68644" y="0.68644" width="60.4067" height="60.4067" transform="matrix(-1 0 0 1 1872.61 664.475)" stroke="white" stroke-width="1.37288"/>
<rect x="-0.68644" y="0.68644" width="60.4067" height="60.4067" transform="matrix(-1 0 0 1 1812.2 664.475)" stroke="white" stroke-width="1.37288"/>
<rect x="-0.68644" y="0.68644" width="60.4067" height="60.4067" transform="matrix(-1 0 0 1 1751.8 664.475)" stroke="white" stroke-width="1.37288"/>
<rect x="-0.68644" y="0.68644" width="60.4067" height="60.4067" transform="matrix(-1 0 0 1 1691.39 664.475)" stroke="white" stroke-width="1.37288"/>
<rect x="-0.68644" y="0.68644" width="60.4067" height="60.4067" transform="matrix(-1 0 0 1 1630.98 664.475)" stroke="white" stroke-width="1.37288"/>
<rect x="-0.68644" y="0.68644" width="60.4067" height="60.4067" transform="matrix(-1 0 0 1 1570.58 664.475)" stroke="white" stroke-width="1.37288"/>
<rect x="-0.68644" y="0.68644" width="60.4067" height="60.4067" transform="matrix(-1 0 0 1 1510.17 664.475)" stroke="white" stroke-width="1.37288"/>
<rect x="-0.68644" y="0.68644" width="60.4067" height="60.4067" transform="matrix(-1 0 0 1 1449.76 664.475)" stroke="white" stroke-width="1.37288"/>
<rect x="-0.68644" y="0.68644" width="60.4067" height="60.4067" transform="matrix(-1 0 0 1 1389.36 664.475)" stroke="white" stroke-width="1.37288"/>
<rect x="-0.68644" y="0.68644" width="60.4067" height="60.4067" transform="matrix(-1 0 0 1 1328.95 664.475)" stroke="white" stroke-width="1.37288"/>
<rect x="-0.68644" y="0.68644" width="60.4067" height="60.4067" transform="matrix(-1 0 0 1 1268.54 664.475)" stroke="white" stroke-width="1.37288"/>
<rect x="-0.68644" y="0.68644" width="60.4067" height="60.4067" transform="matrix(-1 0 0 1 1208.13 664.475)" stroke="white" stroke-width="1.37288"/>
<rect x="-0.68644" y="0.68644" width="60.4067" height="60.4067" transform="matrix(-1 0 0 1 1147.73 664.475)" stroke="white" stroke-width="1.37288"/>
<rect x="-0.68644" y="0.68644" width="60.4067" height="60.4067" transform="matrix(-1 0 0 1 1087.32 664.475)" stroke="white" stroke-width="1.37288"/>
<rect x="-0.68644" y="0.68644" width="60.4067" height="60.4067" transform="matrix(-1 0 0 1 1026.92 664.475)" stroke="white" stroke-width="1.37288"/>
<rect x="-0.68644" y="0.68644" width="60.4067" height="60.4067" transform="matrix(-1 0 0 1 966.508 664.475)" stroke="white" stroke-width="1.37288"/>
<rect x="-0.68644" y="0.68644" width="60.4067" height="60.4067" transform="matrix(-1 0 0 1 906.102 664.475)" stroke="white" stroke-width="1.37288"/>
<path d="M785.975 665.161V696.051C785.975 712.353 799.189 725.567 815.491 725.567H846.381V665.161H785.975Z" stroke="white" stroke-width="1.37288"/>
<path d="M725.568 665.161V725.567H756.458C772.76 725.567 785.975 712.352 785.975 696.051V665.161H725.568Z" stroke="white" stroke-width="1.37288"/>
<rect x="-0.68644" y="0.68644" width="60.4067" height="60.4067" transform="matrix(-1 0 0 1 724.881 664.475)" stroke="white" stroke-width="1.37288"/>
<rect x="-0.68644" y="0.68644" width="60.4067" height="60.4067" transform="matrix(-1 0 0 1 664.475 664.475)" stroke="white" stroke-width="1.37288"/>
<rect x="-0.68644" y="0.68644" width="60.4067" height="60.4067" transform="matrix(-1 0 0 1 604.068 664.475)" stroke="white" stroke-width="1.37288"/>
<rect x="-0.68644" y="0.68644" width="60.4067" height="60.4067" transform="matrix(-1 0 0 1 543.661 664.475)" stroke="white" stroke-width="1.37288"/>
<rect x="-0.68644" y="0.68644" width="60.4067" height="60.4067" transform="matrix(-1 0 0 1 483.254 664.475)" stroke="white" stroke-width="1.37288"/>
<rect x="-0.68644" y="0.68644" width="60.4067" height="60.4067" transform="matrix(-1 0 0 1 422.848 664.475)" stroke="white" stroke-width="1.37288"/>
<rect x="-0.68644" y="0.68644" width="60.4067" height="60.4067" transform="matrix(-1 0 0 1 362.441 664.475)" stroke="white" stroke-width="1.37288"/>
<rect x="-0.68644" y="0.68644" width="60.4067" height="60.4067" transform="matrix(-1 0 0 1 302.034 664.475)" stroke="white" stroke-width="1.37288"/>
<rect x="-0.68644" y="0.68644" width="60.4067" height="60.4067" transform="matrix(-1 0 0 1 241.627 664.475)" stroke="white" stroke-width="1.37288"/>
<rect x="-0.68644" y="0.68644" width="60.4067" height="60.4067" transform="matrix(-1 0 0 1 181.221 664.475)" stroke="white" stroke-width="1.37288"/>
<rect x="-0.68644" y="0.68644" width="60.4067" height="60.4067" transform="matrix(-1 0 0 1 120.814 664.475)" stroke="white" stroke-width="1.37288"/>
<rect x="-0.68644" y="0.68644" width="60.4067" height="60.4067" transform="matrix(-1 0 0 1 60.4074 664.475)" stroke="white" stroke-width="1.37288"/>
<rect x="-0.68644" y="0.68644" width="60.4067" height="60.4067" transform="matrix(-1 0 0 1 1933.02 724.881)" stroke="white" stroke-width="1.37288"/>
<rect x="-0.68644" y="0.68644" width="60.4067" height="60.4067" transform="matrix(-1 0 0 1 1872.61 724.881)" stroke="white" stroke-width="1.37288"/>
<rect x="-0.68644" y="0.68644" width="60.4067" height="60.4067" transform="matrix(-1 0 0 1 1812.2 724.881)" stroke="white" stroke-width="1.37288"/>
<rect x="-0.68644" y="0.68644" width="60.4067" height="60.4067" transform="matrix(-1 0 0 1 1751.8 724.881)" stroke="white" stroke-width="1.37288"/>
<rect x="-0.68644" y="0.68644" width="60.4067" height="60.4067" transform="matrix(-1 0 0 1 1691.39 724.881)" stroke="white" stroke-width="1.37288"/>
<rect x="-0.68644" y="0.68644" width="60.4067" height="60.4067" transform="matrix(-1 0 0 1 1630.98 724.881)" stroke="white" stroke-width="1.37288"/>
<rect x="-0.68644" y="0.68644" width="60.4067" height="60.4067" transform="matrix(-1 0 0 1 1570.58 724.881)" stroke="white" stroke-width="1.37288"/>
<rect x="-0.68644" y="0.68644" width="60.4067" height="60.4067" transform="matrix(-1 0 0 1 1510.17 724.881)" stroke="white" stroke-width="1.37288"/>
<rect x="-0.68644" y="0.68644" width="60.4067" height="60.4067" transform="matrix(-1 0 0 1 1449.76 724.881)" stroke="white" stroke-width="1.37288"/>
<rect x="-0.68644" y="0.68644" width="60.4067" height="60.4067" transform="matrix(-1 0 0 1 1389.36 724.881)" stroke="white" stroke-width="1.37288"/>
<rect x="-0.68644" y="0.68644" width="60.4067" height="60.4067" transform="matrix(-1 0 0 1 1328.95 724.881)" stroke="white" stroke-width="1.37288"/>
<rect x="-0.68644" y="0.68644" width="60.4067" height="60.4067" transform="matrix(-1 0 0 1 1268.54 724.881)" stroke="white" stroke-width="1.37288"/>
<rect x="-0.68644" y="0.68644" width="60.4067" height="60.4067" transform="matrix(-1 0 0 1 1208.13 724.881)" stroke="white" stroke-width="1.37288"/>
<rect x="-0.68644" y="0.68644" width="60.4067" height="60.4067" transform="matrix(-1 0 0 1 1147.73 724.881)" stroke="white" stroke-width="1.37288"/>
<rect x="-0.68644" y="0.68644" width="60.4067" height="60.4067" transform="matrix(-1 0 0 1 1087.32 724.881)" stroke="white" stroke-width="1.37288"/>
<rect x="-0.68644" y="0.68644" width="60.4067" height="60.4067" transform="matrix(-1 0 0 1 1026.92 724.881)" stroke="white" stroke-width="1.37288"/>
<rect x="-0.68644" y="0.68644" width="60.4067" height="60.4067" transform="matrix(-1 0 0 1 966.508 724.881)" stroke="white" stroke-width="1.37288"/>
<rect x="-0.68644" y="0.68644" width="60.4067" height="60.4067" transform="matrix(-1 0 0 1 906.102 724.881)" stroke="white" stroke-width="1.37288"/>
<path d="M815.491 725.567C799.19 725.567 785.975 738.782 785.975 755.084V785.974H846.381V725.567H815.491Z" stroke="white" stroke-width="1.37288"/>
<path d="M756.458 725.567H725.568V785.974H785.975V755.084C785.974 738.782 772.76 725.568 756.458 725.567Z" stroke="white" stroke-width="1.37288"/>
<rect x="-0.68644" y="0.68644" width="60.4067" height="60.4067" transform="matrix(-1 0 0 1 724.881 724.881)" stroke="white" stroke-width="1.37288"/>
<rect x="-0.68644" y="0.68644" width="60.4067" height="60.4067" transform="matrix(-1 0 0 1 664.475 724.881)" stroke="white" stroke-width="1.37288"/>
<rect x="-0.68644" y="0.68644" width="60.4067" height="60.4067" transform="matrix(-1 0 0 1 604.068 724.881)" stroke="white" stroke-width="1.37288"/>
<rect x="-0.68644" y="0.68644" width="60.4067" height="60.4067" transform="matrix(-1 0 0 1 543.661 724.881)" stroke="white" stroke-width="1.37288"/>
<rect x="-0.68644" y="0.68644" width="60.4067" height="60.4067" transform="matrix(-1 0 0 1 483.254 724.881)" stroke="white" stroke-width="1.37288"/>
<rect x="-0.68644" y="0.68644" width="60.4067" height="60.4067" transform="matrix(-1 0 0 1 422.848 724.881)" stroke="white" stroke-width="1.37288"/>
<rect x="-0.68644" y="0.68644" width="60.4067" height="60.4067" transform="matrix(-1 0 0 1 362.441 724.881)" stroke="white" stroke-width="1.37288"/>
<rect x="-0.68644" y="0.68644" width="60.4067" height="60.4067" transform="matrix(-1 0 0 1 302.034 724.881)" stroke="white" stroke-width="1.37288"/>
<rect x="-0.68644" y="0.68644" width="60.4067" height="60.4067" transform="matrix(-1 0 0 1 241.627 724.881)" stroke="white" stroke-width="1.37288"/>
<rect x="-0.68644" y="0.68644" width="60.4067" height="60.4067" transform="matrix(-1 0 0 1 181.221 724.881)" stroke="white" stroke-width="1.37288"/>
<rect x="-0.68644" y="0.68644" width="60.4067" height="60.4067" transform="matrix(-1 0 0 1 120.814 724.881)" stroke="white" stroke-width="1.37288"/>
<rect x="-0.68644" y="0.68644" width="60.4067" height="60.4067" transform="matrix(-1 0 0 1 60.4074 724.881)" stroke="white" stroke-width="1.37288"/>
<rect x="-0.68644" y="0.68644" width="60.4067" height="60.4067" transform="matrix(-1 0 0 1 1933.02 785.287)" stroke="white" stroke-width="1.37288"/>
<rect x="-0.68644" y="0.68644" width="60.4067" height="60.4067" transform="matrix(-1 0 0 1 1872.61 785.287)" stroke="white" stroke-width="1.37288"/>
<rect x="-0.68644" y="0.68644" width="60.4067" height="60.4067" transform="matrix(-1 0 0 1 1812.2 785.287)" stroke="white" stroke-width="1.37288"/>
<rect x="-0.68644" y="0.68644" width="60.4067" height="60.4067" transform="matrix(-1 0 0 1 1751.8 785.287)" stroke="white" stroke-width="1.37288"/>
<rect x="-0.68644" y="0.68644" width="60.4067" height="60.4067" transform="matrix(-1 0 0 1 1691.39 785.287)" stroke="white" stroke-width="1.37288"/>
<rect x="-0.68644" y="0.68644" width="60.4067" height="60.4067" transform="matrix(-1 0 0 1 1630.98 785.287)" stroke="white" stroke-width="1.37288"/>
<rect x="-0.68644" y="0.68644" width="60.4067" height="60.4067" transform="matrix(-1 0 0 1 1570.58 785.287)" stroke="white" stroke-width="1.37288"/>
<rect x="-0.68644" y="0.68644" width="60.4067" height="60.4067" transform="matrix(-1 0 0 1 1510.17 785.287)" stroke="white" stroke-width="1.37288"/>
<rect x="-0.68644" y="0.68644" width="60.4067" height="60.4067" transform="matrix(-1 0 0 1 1449.76 785.287)" stroke="white" stroke-width="1.37288"/>
<rect x="-0.68644" y="0.68644" width="60.4067" height="60.4067" transform="matrix(-1 0 0 1 1389.36 785.287)" stroke="white" stroke-width="1.37288"/>
<rect x="-0.68644" y="0.68644" width="60.4067" height="60.4067" transform="matrix(-1 0 0 1 1328.95 785.287)" stroke="white" stroke-width="1.37288"/>
<rect x="-0.68644" y="0.68644" width="60.4067" height="60.4067" transform="matrix(-1 0 0 1 1268.54 785.287)" stroke="white" stroke-width="1.37288"/>
<rect x="-0.68644" y="0.68644" width="60.4067" height="60.4067" transform="matrix(-1 0 0 1 1208.13 785.287)" stroke="white" stroke-width="1.37288"/>
<rect x="-0.68644" y="0.68644" width="60.4067" height="60.4067" transform="matrix(-1 0 0 1 1147.73 785.287)" stroke="white" stroke-width="1.37288"/>
<rect x="-0.68644" y="0.68644" width="60.4067" height="60.4067" transform="matrix(-1 0 0 1 1087.32 785.287)" stroke="white" stroke-width="1.37288"/>
<rect x="-0.68644" y="0.68644" width="60.4067" height="60.4067" transform="matrix(-1 0 0 1 1026.92 785.287)" stroke="white" stroke-width="1.37288"/>
<rect x="-0.68644" y="0.68644" width="60.4067" height="60.4067" transform="matrix(-1 0 0 1 966.508 785.287)" stroke="white" stroke-width="1.37288"/>
<rect x="-0.68644" y="0.68644" width="60.4067" height="60.4067" transform="matrix(-1 0 0 1 906.102 785.287)" stroke="white" stroke-width="1.37288"/>
<rect x="-0.68644" y="0.68644" width="60.4067" height="60.4067" transform="matrix(-1 0 0 1 845.695 785.287)" stroke="white" stroke-width="1.37288"/>
<rect x="-0.68644" y="0.68644" width="60.4067" height="60.4067" transform="matrix(-1 0 0 1 785.288 785.287)" stroke="white" stroke-width="1.37288"/>
<rect x="-0.68644" y="0.68644" width="60.4067" height="60.4067" transform="matrix(-1 0 0 1 724.881 785.287)" stroke="white" stroke-width="1.37288"/>
<rect x="-0.68644" y="0.68644" width="60.4067" height="60.4067" transform="matrix(-1 0 0 1 664.475 785.287)" stroke="white" stroke-width="1.37288"/>
<rect x="-0.68644" y="0.68644" width="60.4067" height="60.4067" transform="matrix(-1 0 0 1 604.068 785.287)" stroke="white" stroke-width="1.37288"/>
<rect x="-0.68644" y="0.68644" width="60.4067" height="60.4067" transform="matrix(-1 0 0 1 543.661 785.287)" stroke="white" stroke-width="1.37288"/>
<rect x="-0.68644" y="0.68644" width="60.4067" height="60.4067" transform="matrix(-1 0 0 1 483.254 785.287)" stroke="white" stroke-width="1.37288"/>
<rect x="-0.68644" y="0.68644" width="60.4067" height="60.4067" transform="matrix(-1 0 0 1 422.848 785.287)" stroke="white" stroke-width="1.37288"/>
<rect x="-0.68644" y="0.68644" width="60.4067" height="60.4067" transform="matrix(-1 0 0 1 362.441 785.287)" stroke="white" stroke-width="1.37288"/>
<rect x="-0.68644" y="0.68644" width="60.4067" height="60.4067" transform="matrix(-1 0 0 1 302.034 785.287)" stroke="white" stroke-width="1.37288"/>
<rect x="-0.68644" y="0.68644" width="60.4067" height="60.4067" transform="matrix(-1 0 0 1 241.627 785.287)" stroke="white" stroke-width="1.37288"/>
<rect x="-0.68644" y="0.68644" width="60.4067" height="60.4067" transform="matrix(-1 0 0 1 181.221 785.287)" stroke="white" stroke-width="1.37288"/>
<rect x="-0.68644" y="0.68644" width="60.4067" height="60.4067" transform="matrix(-1 0 0 1 120.814 785.287)" stroke="white" stroke-width="1.37288"/>
<rect x="-0.68644" y="0.68644" width="60.4067" height="60.4067" transform="matrix(-1 0 0 1 60.4074 785.287)" stroke="white" stroke-width="1.37288"/>
<rect x="-0.68644" y="0.68644" width="60.4067" height="60.4067" transform="matrix(-1 0 0 1 1933.02 845.693)" stroke="white" stroke-width="1.37288"/>
<rect x="-0.68644" y="0.68644" width="60.4067" height="60.4067" transform="matrix(-1 0 0 1 1872.61 845.693)" stroke="white" stroke-width="1.37288"/>
<rect x="-0.68644" y="0.68644" width="60.4067" height="60.4067" transform="matrix(-1 0 0 1 1812.2 845.693)" stroke="white" stroke-width="1.37288"/>
<rect x="-0.68644" y="0.68644" width="60.4067" height="60.4067" transform="matrix(-1 0 0 1 1751.8 845.693)" stroke="white" stroke-width="1.37288"/>
<rect x="-0.68644" y="0.68644" width="60.4067" height="60.4067" transform="matrix(-1 0 0 1 1691.39 845.693)" stroke="white" stroke-width="1.37288"/>
<rect x="-0.68644" y="0.68644" width="60.4067" height="60.4067" transform="matrix(-1 0 0 1 1630.98 845.693)" stroke="white" stroke-width="1.37288"/>
<rect x="-0.68644" y="0.68644" width="60.4067" height="60.4067" transform="matrix(-1 0 0 1 1570.58 845.693)" stroke="white" stroke-width="1.37288"/>
<rect x="-0.68644" y="0.68644" width="60.4067" height="60.4067" transform="matrix(-1 0 0 1 1510.17 845.693)" stroke="white" stroke-width="1.37288"/>
<rect x="-0.68644" y="0.68644" width="60.4067" height="60.4067" transform="matrix(-1 0 0 1 1449.76 845.693)" stroke="white" stroke-width="1.37288"/>
<rect x="-0.68644" y="0.68644" width="60.4067" height="60.4067" transform="matrix(-1 0 0 1 1389.36 845.693)" stroke="white" stroke-width="1.37288"/>
<rect x="-0.68644" y="0.68644" width="60.4067" height="60.4067" transform="matrix(-1 0 0 1 1328.95 845.693)" stroke="white" stroke-width="1.37288"/>
<rect x="-0.68644" y="0.68644" width="60.4067" height="60.4067" transform="matrix(-1 0 0 1 1268.54 845.693)" stroke="white" stroke-width="1.37288"/>
<rect x="-0.68644" y="0.68644" width="60.4067" height="60.4067" transform="matrix(-1 0 0 1 1208.13 845.693)" stroke="white" stroke-width="1.37288"/>
<rect x="-0.68644" y="0.68644" width="60.4067" height="60.4067" transform="matrix(-1 0 0 1 1147.73 845.693)" stroke="white" stroke-width="1.37288"/>
<rect x="-0.68644" y="0.68644" width="60.4067" height="60.4067" transform="matrix(-1 0 0 1 1087.32 845.693)" stroke="white" stroke-width="1.37288"/>
<rect x="-0.68644" y="0.68644" width="60.4067" height="60.4067" transform="matrix(-1 0 0 1 1026.92 845.693)" stroke="white" stroke-width="1.37288"/>
<rect x="-0.68644" y="0.68644" width="60.4067" height="60.4067" transform="matrix(-1 0 0 1 966.508 845.693)" stroke="white" stroke-width="1.37288"/>
<rect x="-0.68644" y="0.68644" width="60.4067" height="60.4067" transform="matrix(-1 0 0 1 906.101 845.693)" stroke="white" stroke-width="1.37288"/>
<rect x="-0.68644" y="0.68644" width="60.4067" height="60.4067" transform="matrix(-1 0 0 1 845.695 845.693)" stroke="white" stroke-width="1.37288"/>
<rect x="-0.68644" y="0.68644" width="60.4067" height="60.4067" transform="matrix(-1 0 0 1 785.287 845.693)" stroke="white" stroke-width="1.37288"/>
<rect x="-0.68644" y="0.68644" width="60.4067" height="60.4067" transform="matrix(-1 0 0 1 724.881 845.693)" stroke="white" stroke-width="1.37288"/>
<rect x="-0.68644" y="0.68644" width="60.4067" height="60.4067" transform="matrix(-1 0 0 1 664.475 845.693)" stroke="white" stroke-width="1.37288"/>
<rect x="-0.68644" y="0.68644" width="60.4067" height="60.4067" transform="matrix(-1 0 0 1 604.068 845.693)" stroke="white" stroke-width="1.37288"/>
<rect x="-0.68644" y="0.68644" width="60.4067" height="60.4067" transform="matrix(-1 0 0 1 543.661 845.693)" stroke="white" stroke-width="1.37288"/>
<rect x="-0.68644" y="0.68644" width="60.4067" height="60.4067" transform="matrix(-1 0 0 1 483.254 845.693)" stroke="white" stroke-width="1.37288"/>
<rect x="-0.68644" y="0.68644" width="60.4067" height="60.4067" transform="matrix(-1 0 0 1 422.847 845.693)" stroke="white" stroke-width="1.37288"/>
<rect x="-0.68644" y="0.68644" width="60.4067" height="60.4067" transform="matrix(-1 0 0 1 362.442 845.693)" stroke="white" stroke-width="1.37288"/>
<rect x="-0.68644" y="0.68644" width="60.4067" height="60.4067" transform="matrix(-1 0 0 1 302.034 845.693)" stroke="white" stroke-width="1.37288"/>
<rect x="-0.68644" y="0.68644" width="60.4067" height="60.4067" transform="matrix(-1 0 0 1 241.627 845.693)" stroke="white" stroke-width="1.37288"/>
<rect x="-0.68644" y="0.68644" width="60.4067" height="60.4067" transform="matrix(-1 0 0 1 181.221 845.693)" stroke="white" stroke-width="1.37288"/>
<rect x="-0.68644" y="0.68644" width="60.4067" height="60.4067" transform="matrix(-1 0 0 1 120.814 845.693)" stroke="white" stroke-width="1.37288"/>
<rect x="-0.68644" y="0.68644" width="60.4067" height="60.4067" transform="matrix(-1 0 0 1 60.4074 845.693)" stroke="white" stroke-width="1.37288"/>
<rect x="-0.68644" y="0.68644" width="60.4067" height="60.4067" transform="matrix(-1 0 0 1 1933.02 906.102)" stroke="white" stroke-width="1.37288"/>
<rect x="-0.68644" y="0.68644" width="60.4067" height="60.4067" transform="matrix(-1 0 0 1 1872.61 906.102)" stroke="white" stroke-width="1.37288"/>
<rect x="-0.68644" y="0.68644" width="60.4067" height="60.4067" transform="matrix(-1 0 0 1 1812.2 906.102)" stroke="white" stroke-width="1.37288"/>
<rect x="-0.68644" y="0.68644" width="60.4067" height="60.4067" transform="matrix(-1 0 0 1 1751.8 906.102)" stroke="white" stroke-width="1.37288"/>
<rect x="-0.68644" y="0.68644" width="60.4067" height="60.4067" transform="matrix(-1 0 0 1 1691.39 906.102)" stroke="white" stroke-width="1.37288"/>
<rect x="-0.68644" y="0.68644" width="60.4067" height="60.4067" transform="matrix(-1 0 0 1 1630.98 906.102)" stroke="white" stroke-width="1.37288"/>
<rect x="-0.68644" y="0.68644" width="60.4067" height="60.4067" transform="matrix(-1 0 0 1 1570.58 906.102)" stroke="white" stroke-width="1.37288"/>
<rect x="-0.68644" y="0.68644" width="60.4067" height="60.4067" transform="matrix(-1 0 0 1 1510.17 906.102)" stroke="white" stroke-width="1.37288"/>
<rect x="-0.68644" y="0.68644" width="60.4067" height="60.4067" transform="matrix(-1 0 0 1 1449.76 906.102)" stroke="white" stroke-width="1.37288"/>
<rect x="-0.68644" y="0.68644" width="60.4067" height="60.4067" transform="matrix(-1 0 0 1 1389.36 906.102)" stroke="white" stroke-width="1.37288"/>
<rect x="-0.68644" y="0.68644" width="60.4067" height="60.4067" transform="matrix(-1 0 0 1 1328.95 906.102)" stroke="white" stroke-width="1.37288"/>
<rect x="-0.68644" y="0.68644" width="60.4067" height="60.4067" transform="matrix(-1 0 0 1 1268.54 906.102)" stroke="white" stroke-width="1.37288"/>
<rect x="-0.68644" y="0.68644" width="60.4067" height="60.4067" transform="matrix(-1 0 0 1 1208.13 906.102)" stroke="white" stroke-width="1.37288"/>
<rect x="-0.68644" y="0.68644" width="60.4067" height="60.4067" transform="matrix(-1 0 0 1 1147.73 906.102)" stroke="white" stroke-width="1.37288"/>
<rect x="-0.68644" y="0.68644" width="60.4067" height="60.4067" transform="matrix(-1 0 0 1 1087.32 906.102)" stroke="white" stroke-width="1.37288"/>
<rect x="-0.68644" y="0.68644" width="60.4067" height="60.4067" transform="matrix(-1 0 0 1 1026.92 906.102)" stroke="white" stroke-width="1.37288"/>
<rect x="-0.68644" y="0.68644" width="60.4067" height="60.4067" transform="matrix(-1 0 0 1 966.508 906.102)" stroke="white" stroke-width="1.37288"/>
<rect x="-0.68644" y="0.68644" width="60.4067" height="60.4067" transform="matrix(-1 0 0 1 906.102 906.102)" stroke="white" stroke-width="1.37288"/>
<rect x="-0.68644" y="0.68644" width="60.4067" height="60.4067" transform="matrix(-1 0 0 1 845.695 906.102)" stroke="white" stroke-width="1.37288"/>
<rect x="-0.68644" y="0.68644" width="60.4067" height="60.4067" transform="matrix(-1 0 0 1 785.288 906.102)" stroke="white" stroke-width="1.37288"/>
<rect x="-0.68644" y="0.68644" width="60.4067" height="60.4067" transform="matrix(-1 0 0 1 724.881 906.102)" stroke="white" stroke-width="1.37288"/>
<rect x="-0.68644" y="0.68644" width="60.4067" height="60.4067" transform="matrix(-1 0 0 1 664.475 906.102)" stroke="white" stroke-width="1.37288"/>
<rect x="-0.68644" y="0.68644" width="60.4067" height="60.4067" transform="matrix(-1 0 0 1 604.068 906.102)" stroke="white" stroke-width="1.37288"/>
<rect x="-0.68644" y="0.68644" width="60.4067" height="60.4067" transform="matrix(-1 0 0 1 543.661 906.102)" stroke="white" stroke-width="1.37288"/>
<rect x="-0.68644" y="0.68644" width="60.4067" height="60.4067" transform="matrix(-1 0 0 1 483.254 906.102)" stroke="white" stroke-width="1.37288"/>
<rect x="-0.68644" y="0.68644" width="60.4067" height="60.4067" transform="matrix(-1 0 0 1 422.848 906.102)" stroke="white" stroke-width="1.37288"/>
<rect x="-0.68644" y="0.68644" width="60.4067" height="60.4067" transform="matrix(-1 0 0 1 362.441 906.102)" stroke="white" stroke-width="1.37288"/>
<rect x="-0.68644" y="0.68644" width="60.4067" height="60.4067" transform="matrix(-1 0 0 1 302.034 906.102)" stroke="white" stroke-width="1.37288"/>
<rect x="-0.68644" y="0.68644" width="60.4067" height="60.4067" transform="matrix(-1 0 0 1 241.627 906.102)" stroke="white" stroke-width="1.37288"/>
<rect x="-0.68644" y="0.68644" width="60.4067" height="60.4067" transform="matrix(-1 0 0 1 181.221 906.102)" stroke="white" stroke-width="1.37288"/>
<rect x="-0.68644" y="0.68644" width="60.4067" height="60.4067" transform="matrix(-1 0 0 1 120.814 906.102)" stroke="white" stroke-width="1.37288"/>
<rect x="-0.68644" y="0.68644" width="60.4067" height="60.4067" transform="matrix(-1 0 0 1 60.4074 906.102)" stroke="white" stroke-width="1.37288"/>
<rect x="-0.68644" y="0.68644" width="60.4067" height="60.4067" transform="matrix(-1 0 0 1 1933.02 966.508)" stroke="white" stroke-width="1.37288"/>
<rect x="-0.68644" y="0.68644" width="60.4067" height="60.4067" transform="matrix(-1 0 0 1 1872.61 966.508)" stroke="white" stroke-width="1.37288"/>
<rect x="-0.68644" y="0.68644" width="60.4067" height="60.4067" transform="matrix(-1 0 0 1 1812.2 966.508)" stroke="white" stroke-width="1.37288"/>
<rect x="-0.68644" y="0.68644" width="60.4067" height="60.4067" transform="matrix(-1 0 0 1 1751.8 966.508)" stroke="white" stroke-width="1.37288"/>
<rect x="-0.68644" y="0.68644" width="60.4067" height="60.4067" transform="matrix(-1 0 0 1 1691.39 966.508)" stroke="white" stroke-width="1.37288"/>
<rect x="-0.68644" y="0.68644" width="60.4067" height="60.4067" transform="matrix(-1 0 0 1 1630.98 966.508)" stroke="white" stroke-width="1.37288"/>
<rect x="-0.68644" y="0.68644" width="60.4067" height="60.4067" transform="matrix(-1 0 0 1 1570.58 966.508)" stroke="white" stroke-width="1.37288"/>
<rect x="-0.68644" y="0.68644" width="60.4067" height="60.4067" transform="matrix(-1 0 0 1 1510.17 966.508)" stroke="white" stroke-width="1.37288"/>
<rect x="-0.68644" y="0.68644" width="60.4067" height="60.4067" transform="matrix(-1 0 0 1 1449.76 966.508)" stroke="white" stroke-width="1.37288"/>
<rect x="-0.68644" y="0.68644" width="60.4067" height="60.4067" transform="matrix(-1 0 0 1 1389.36 966.508)" stroke="white" stroke-width="1.37288"/>
<rect x="-0.68644" y="0.68644" width="60.4067" height="60.4067" transform="matrix(-1 0 0 1 1328.95 966.508)" stroke="white" stroke-width="1.37288"/>
<rect x="-0.68644" y="0.68644" width="60.4067" height="60.4067" transform="matrix(-1 0 0 1 1268.54 966.508)" stroke="white" stroke-width="1.37288"/>
<rect x="-0.68644" y="0.68644" width="60.4067" height="60.4067" transform="matrix(-1 0 0 1 1208.13 966.508)" stroke="white" stroke-width="1.37288"/>
<rect x="-0.68644" y="0.68644" width="60.4067" height="60.4067" transform="matrix(-1 0 0 1 1147.73 966.508)" stroke="white" stroke-width="1.37288"/>
<rect x="-0.68644" y="0.68644" width="60.4067" height="60.4067" transform="matrix(-1 0 0 1 1087.32 966.508)" stroke="white" stroke-width="1.37288"/>
<rect x="-0.68644" y="0.68644" width="60.4067" height="60.4067" transform="matrix(-1 0 0 1 1026.92 966.508)" stroke="white" stroke-width="1.37288"/>
<rect x="-0.68644" y="0.68644" width="60.4067" height="60.4067" transform="matrix(-1 0 0 1 966.508 966.508)" stroke="white" stroke-width="1.37288"/>
<rect x="-0.68644" y="0.68644" width="60.4067" height="60.4067" transform="matrix(-1 0 0 1 906.102 966.508)" stroke="white" stroke-width="1.37288"/>
<rect x="-0.68644" y="0.68644" width="60.4067" height="60.4067" transform="matrix(-1 0 0 1 845.695 966.508)" stroke="white" stroke-width="1.37288"/>
<rect x="-0.68644" y="0.68644" width="60.4067" height="60.4067" transform="matrix(-1 0 0 1 785.288 966.508)" stroke="white" stroke-width="1.37288"/>
<rect x="-0.68644" y="0.68644" width="60.4067" height="60.4067" transform="matrix(-1 0 0 1 724.881 966.508)" stroke="white" stroke-width="1.37288"/>
<rect x="-0.68644" y="0.68644" width="60.4067" height="60.4067" transform="matrix(-1 0 0 1 664.475 966.508)" stroke="white" stroke-width="1.37288"/>
<rect x="-0.68644" y="0.68644" width="60.4067" height="60.4067" transform="matrix(-1 0 0 1 604.068 966.508)" stroke="white" stroke-width="1.37288"/>
<rect x="-0.68644" y="0.68644" width="60.4067" height="60.4067" transform="matrix(-1 0 0 1 543.661 966.508)" stroke="white" stroke-width="1.37288"/>
<rect x="-0.68644" y="0.68644" width="60.4067" height="60.4067" transform="matrix(-1 0 0 1 483.254 966.508)" stroke="white" stroke-width="1.37288"/>
<rect x="-0.68644" y="0.68644" width="60.4067" height="60.4067" transform="matrix(-1 0 0 1 422.848 966.508)" stroke="white" stroke-width="1.37288"/>
<rect x="-0.68644" y="0.68644" width="60.4067" height="60.4067" transform="matrix(-1 0 0 1 362.441 966.508)" stroke="white" stroke-width="1.37288"/>
<rect x="-0.68644" y="0.68644" width="60.4067" height="60.4067" transform="matrix(-1 0 0 1 302.034 966.508)" stroke="white" stroke-width="1.37288"/>
<rect x="-0.68644" y="0.68644" width="60.4067" height="60.4067" transform="matrix(-1 0 0 1 241.627 966.508)" stroke="white" stroke-width="1.37288"/>
<rect x="-0.68644" y="0.68644" width="60.4067" height="60.4067" transform="matrix(-1 0 0 1 181.221 966.508)" stroke="white" stroke-width="1.37288"/>
<rect x="-0.68644" y="0.68644" width="60.4067" height="60.4067" transform="matrix(-1 0 0 1 120.814 966.508)" stroke="white" stroke-width="1.37288"/>
<rect x="-0.68644" y="0.68644" width="60.4067" height="60.4067" transform="matrix(-1 0 0 1 60.4074 966.508)" stroke="white" stroke-width="1.37288"/>
<rect x="-0.68644" y="0.68644" width="60.4067" height="60.4067" transform="matrix(-1 0 0 1 1933.02 1026.91)" stroke="white" stroke-width="1.37288"/>
<rect x="-0.68644" y="0.68644" width="60.4067" height="60.4067" transform="matrix(-1 0 0 1 1872.61 1026.91)" stroke="white" stroke-width="1.37288"/>
<rect x="-0.68644" y="0.68644" width="60.4067" height="60.4067" transform="matrix(-1 0 0 1 1812.2 1026.91)" stroke="white" stroke-width="1.37288"/>
<rect x="-0.68644" y="0.68644" width="60.4067" height="60.4067" transform="matrix(-1 0 0 1 1751.8 1026.91)" stroke="white" stroke-width="1.37288"/>
<rect x="-0.68644" y="0.68644" width="60.4067" height="60.4067" transform="matrix(-1 0 0 1 1691.39 1026.91)" stroke="white" stroke-width="1.37288"/>
<rect x="-0.68644" y="0.68644" width="60.4067" height="60.4067" transform="matrix(-1 0 0 1 1630.98 1026.91)" stroke="white" stroke-width="1.37288"/>
<rect x="-0.68644" y="0.68644" width="60.4067" height="60.4067" transform="matrix(-1 0 0 1 1570.58 1026.91)" stroke="white" stroke-width="1.37288"/>
<rect x="-0.68644" y="0.68644" width="60.4067" height="60.4067" transform="matrix(-1 0 0 1 1510.17 1026.91)" stroke="white" stroke-width="1.37288"/>
<rect x="-0.68644" y="0.68644" width="60.4067" height="60.4067" transform="matrix(-1 0 0 1 1449.76 1026.91)" stroke="white" stroke-width="1.37288"/>
<rect x="-0.68644" y="0.68644" width="60.4067" height="60.4067" transform="matrix(-1 0 0 1 1389.36 1026.91)" stroke="white" stroke-width="1.37288"/>
<rect x="-0.68644" y="0.68644" width="60.4067" height="60.4067" transform="matrix(-1 0 0 1 1328.95 1026.91)" stroke="white" stroke-width="1.37288"/>
<rect x="-0.68644" y="0.68644" width="60.4067" height="60.4067" transform="matrix(-1 0 0 1 1268.54 1026.91)" stroke="white" stroke-width="1.37288"/>
<rect x="-0.68644" y="0.68644" width="60.4067" height="60.4067" transform="matrix(-1 0 0 1 1208.13 1026.91)" stroke="white" stroke-width="1.37288"/>
<rect x="-0.68644" y="0.68644" width="60.4067" height="60.4067" transform="matrix(-1 0 0 1 1147.73 1026.91)" stroke="white" stroke-width="1.37288"/>
<rect x="-0.68644" y="0.68644" width="60.4067" height="60.4067" transform="matrix(-1 0 0 1 1087.32 1026.91)" stroke="white" stroke-width="1.37288"/>
<rect x="-0.68644" y="0.68644" width="60.4067" height="60.4067" transform="matrix(-1 0 0 1 1026.92 1026.91)" stroke="white" stroke-width="1.37288"/>
<rect x="-0.68644" y="0.68644" width="60.4067" height="60.4067" transform="matrix(-1 0 0 1 966.508 1026.91)" stroke="white" stroke-width="1.37288"/>
<rect x="-0.68644" y="0.68644" width="60.4067" height="60.4067" transform="matrix(-1 0 0 1 906.102 1026.91)" stroke="white" stroke-width="1.37288"/>
<rect x="-0.68644" y="0.68644" width="60.4067" height="60.4067" transform="matrix(-1 0 0 1 845.695 1026.91)" stroke="white" stroke-width="1.37288"/>
<rect x="-0.68644" y="0.68644" width="60.4067" height="60.4067" transform="matrix(-1 0 0 1 785.288 1026.91)" stroke="white" stroke-width="1.37288"/>
<rect x="-0.68644" y="0.68644" width="60.4067" height="60.4067" transform="matrix(-1 0 0 1 724.881 1026.91)" stroke="white" stroke-width="1.37288"/>
<rect x="-0.68644" y="0.68644" width="60.4067" height="60.4067" transform="matrix(-1 0 0 1 664.475 1026.91)" stroke="white" stroke-width="1.37288"/>
<rect x="-0.68644" y="0.68644" width="60.4067" height="60.4067" transform="matrix(-1 0 0 1 604.068 1026.91)" stroke="white" stroke-width="1.37288"/>
<rect x="-0.68644" y="0.68644" width="60.4067" height="60.4067" transform="matrix(-1 0 0 1 543.661 1026.91)" stroke="white" stroke-width="1.37288"/>
<rect x="-0.68644" y="0.68644" width="60.4067" height="60.4067" transform="matrix(-1 0 0 1 483.254 1026.91)" stroke="white" stroke-width="1.37288"/>
<rect x="-0.68644" y="0.68644" width="60.4067" height="60.4067" transform="matrix(-1 0 0 1 422.848 1026.91)" stroke="white" stroke-width="1.37288"/>
<rect x="-0.68644" y="0.68644" width="60.4067" height="60.4067" transform="matrix(-1 0 0 1 362.441 1026.91)" stroke="white" stroke-width="1.37288"/>
<rect x="-0.68644" y="0.68644" width="60.4067" height="60.4067" transform="matrix(-1 0 0 1 302.034 1026.91)" stroke="white" stroke-width="1.37288"/>
<rect x="-0.68644" y="0.68644" width="60.4067" height="60.4067" transform="matrix(-1 0 0 1 241.627 1026.91)" stroke="white" stroke-width="1.37288"/>
<rect x="-0.68644" y="0.68644" width="60.4067" height="60.4067" transform="matrix(-1 0 0 1 181.221 1026.91)" stroke="white" stroke-width="1.37288"/>
<rect x="-0.68644" y="0.68644" width="60.4067" height="60.4067" transform="matrix(-1 0 0 1 120.814 1026.91)" stroke="white" stroke-width="1.37288"/>
<rect x="-0.68644" y="0.68644" width="60.4067" height="60.4067" transform="matrix(-1 0 0 1 60.4074 1026.91)" stroke="white" stroke-width="1.37288"/>
<rect x="-0.68644" y="0.68644" width="60.4067" height="60.4067" transform="matrix(-1 0 0 1 1933.02 1087.32)" stroke="white" stroke-width="1.37288"/>
<rect x="-0.68644" y="0.68644" width="60.4067" height="60.4067" transform="matrix(-1 0 0 1 1872.61 1087.32)" stroke="white" stroke-width="1.37288"/>
<rect x="-0.68644" y="0.68644" width="60.4067" height="60.4067" transform="matrix(-1 0 0 1 1812.2 1087.32)" stroke="white" stroke-width="1.37288"/>
<rect x="-0.68644" y="0.68644" width="60.4067" height="60.4067" transform="matrix(-1 0 0 1 1751.8 1087.32)" stroke="white" stroke-width="1.37288"/>
<rect x="-0.68644" y="0.68644" width="60.4067" height="60.4067" transform="matrix(-1 0 0 1 1691.39 1087.32)" stroke="white" stroke-width="1.37288"/>
<rect x="-0.68644" y="0.68644" width="60.4067" height="60.4067" transform="matrix(-1 0 0 1 1630.98 1087.32)" stroke="white" stroke-width="1.37288"/>
<rect x="-0.68644" y="0.68644" width="60.4067" height="60.4067" transform="matrix(-1 0 0 1 1570.58 1087.32)" stroke="white" stroke-width="1.37288"/>
<rect x="-0.68644" y="0.68644" width="60.4067" height="60.4067" transform="matrix(-1 0 0 1 1510.17 1087.32)" stroke="white" stroke-width="1.37288"/>
<rect x="-0.68644" y="0.68644" width="60.4067" height="60.4067" transform="matrix(-1 0 0 1 1449.76 1087.32)" stroke="white" stroke-width="1.37288"/>
<rect x="-0.68644" y="0.68644" width="60.4067" height="60.4067" transform="matrix(-1 0 0 1 1389.36 1087.32)" stroke="white" stroke-width="1.37288"/>
<rect x="-0.68644" y="0.68644" width="60.4067" height="60.4067" transform="matrix(-1 0 0 1 1328.95 1087.32)" stroke="white" stroke-width="1.37288"/>
<rect x="-0.68644" y="0.68644" width="60.4067" height="60.4067" transform="matrix(-1 0 0 1 1268.54 1087.32)" stroke="white" stroke-width="1.37288"/>
<rect x="-0.68644" y="0.68644" width="60.4067" height="60.4067" transform="matrix(-1 0 0 1 1208.13 1087.32)" stroke="white" stroke-width="1.37288"/>
<rect x="-0.68644" y="0.68644" width="60.4067" height="60.4067" transform="matrix(-1 0 0 1 1147.73 1087.32)" stroke="white" stroke-width="1.37288"/>
<rect x="-0.68644" y="0.68644" width="60.4067" height="60.4067" transform="matrix(-1 0 0 1 1087.32 1087.32)" stroke="white" stroke-width="1.37288"/>
<rect x="-0.68644" y="0.68644" width="60.4067" height="60.4067" transform="matrix(-1 0 0 1 1026.92 1087.32)" stroke="white" stroke-width="1.37288"/>
<rect x="-0.68644" y="0.68644" width="60.4067" height="60.4067" transform="matrix(-1 0 0 1 966.508 1087.32)" stroke="white" stroke-width="1.37288"/>
<rect x="-0.68644" y="0.68644" width="60.4067" height="60.4067" transform="matrix(-1 0 0 1 906.102 1087.32)" stroke="white" stroke-width="1.37288"/>
<rect x="-0.68644" y="0.68644" width="60.4067" height="60.4067" transform="matrix(-1 0 0 1 845.695 1087.32)" stroke="white" stroke-width="1.37288"/>
<rect x="-0.68644" y="0.68644" width="60.4067" height="60.4067" transform="matrix(-1 0 0 1 785.288 1087.32)" stroke="white" stroke-width="1.37288"/>
<rect x="-0.68644" y="0.68644" width="60.4067" height="60.4067" transform="matrix(-1 0 0 1 724.881 1087.32)" stroke="white" stroke-width="1.37288"/>
<rect x="-0.68644" y="0.68644" width="60.4067" height="60.4067" transform="matrix(-1 0 0 1 664.475 1087.32)" stroke="white" stroke-width="1.37288"/>
<rect x="-0.68644" y="0.68644" width="60.4067" height="60.4067" transform="matrix(-1 0 0 1 604.068 1087.32)" stroke="white" stroke-width="1.37288"/>
<rect x="-0.68644" y="0.68644" width="60.4067" height="60.4067" transform="matrix(-1 0 0 1 543.661 1087.32)" stroke="white" stroke-width="1.37288"/>
<rect x="-0.68644" y="0.68644" width="60.4067" height="60.4067" transform="matrix(-1 0 0 1 483.254 1087.32)" stroke="white" stroke-width="1.37288"/>
<rect x="-0.68644" y="0.68644" width="60.4067" height="60.4067" transform="matrix(-1 0 0 1 422.848 1087.32)" stroke="white" stroke-width="1.37288"/>
<rect x="-0.68644" y="0.68644" width="60.4067" height="60.4067" transform="matrix(-1 0 0 1 362.441 1087.32)" stroke="white" stroke-width="1.37288"/>
<rect x="-0.68644" y="0.68644" width="60.4067" height="60.4067" transform="matrix(-1 0 0 1 302.034 1087.32)" stroke="white" stroke-width="1.37288"/>
<rect x="-0.68644" y="0.68644" width="60.4067" height="60.4067" transform="matrix(-1 0 0 1 241.627 1087.32)" stroke="white" stroke-width="1.37288"/>
<rect x="-0.68644" y="0.68644" width="60.4067" height="60.4067" transform="matrix(-1 0 0 1 181.221 1087.32)" stroke="white" stroke-width="1.37288"/>
<rect x="-0.68644" y="0.68644" width="60.4067" height="60.4067" transform="matrix(-1 0 0 1 120.814 1087.32)" stroke="white" stroke-width="1.37288"/>
<rect x="-0.68644" y="0.68644" width="60.4067" height="60.4067" transform="matrix(-1 0 0 1 60.4074 1087.32)" stroke="white" stroke-width="1.37288"/>
<rect x="-0.68644" y="0.68644" width="60.4067" height="60.4067" transform="matrix(-1 0 0 1 1933.02 1147.73)" stroke="white" stroke-width="1.37288"/>
<rect x="-0.68644" y="0.68644" width="60.4067" height="60.4067" transform="matrix(-1 0 0 1 1872.61 1147.73)" stroke="white" stroke-width="1.37288"/>
<rect x="-0.68644" y="0.68644" width="60.4067" height="60.4067" transform="matrix(-1 0 0 1 1812.2 1147.73)" stroke="white" stroke-width="1.37288"/>
<rect x="-0.68644" y="0.68644" width="60.4067" height="60.4067" transform="matrix(-1 0 0 1 1751.8 1147.73)" stroke="white" stroke-width="1.37288"/>
<rect x="-0.68644" y="0.68644" width="60.4067" height="60.4067" transform="matrix(-1 0 0 1 1691.39 1147.73)" stroke="white" stroke-width="1.37288"/>
<rect x="-0.68644" y="0.68644" width="60.4067" height="60.4067" transform="matrix(-1 0 0 1 1630.98 1147.73)" stroke="white" stroke-width="1.37288"/>
<rect x="-0.68644" y="0.68644" width="60.4067" height="60.4067" transform="matrix(-1 0 0 1 1570.58 1147.73)" stroke="white" stroke-width="1.37288"/>
<rect x="-0.68644" y="0.68644" width="60.4067" height="60.4067" transform="matrix(-1 0 0 1 1510.17 1147.73)" stroke="white" stroke-width="1.37288"/>
<rect x="-0.68644" y="0.68644" width="60.4067" height="60.4067" transform="matrix(-1 0 0 1 1449.76 1147.73)" stroke="white" stroke-width="1.37288"/>
<rect x="-0.68644" y="0.68644" width="60.4067" height="60.4067" transform="matrix(-1 0 0 1 1389.36 1147.73)" stroke="white" stroke-width="1.37288"/>
<rect x="-0.68644" y="0.68644" width="60.4067" height="60.4067" transform="matrix(-1 0 0 1 1328.95 1147.73)" stroke="white" stroke-width="1.37288"/>
<rect x="-0.68644" y="0.68644" width="60.4067" height="60.4067" transform="matrix(-1 0 0 1 1268.54 1147.73)" stroke="white" stroke-width="1.37288"/>
<rect x="-0.68644" y="0.68644" width="60.4067" height="60.4067" transform="matrix(-1 0 0 1 1208.13 1147.73)" stroke="white" stroke-width="1.37288"/>
<rect x="-0.68644" y="0.68644" width="60.4067" height="60.4067" transform="matrix(-1 0 0 1 1147.73 1147.73)" stroke="white" stroke-width="1.37288"/>
<rect x="-0.68644" y="0.68644" width="60.4067" height="60.4067" transform="matrix(-1 0 0 1 1087.32 1147.73)" stroke="white" stroke-width="1.37288"/>
<rect x="-0.68644" y="0.68644" width="60.4067" height="60.4067" transform="matrix(-1 0 0 1 1026.92 1147.73)" stroke="white" stroke-width="1.37288"/>
<rect x="-0.68644" y="0.68644" width="60.4067" height="60.4067" transform="matrix(-1 0 0 1 966.508 1147.73)" stroke="white" stroke-width="1.37288"/>
<rect x="-0.68644" y="0.68644" width="60.4067" height="60.4067" transform="matrix(-1 0 0 1 906.102 1147.73)" stroke="white" stroke-width="1.37288"/>
<rect x="-0.68644" y="0.68644" width="60.4067" height="60.4067" transform="matrix(-1 0 0 1 845.695 1147.73)" stroke="white" stroke-width="1.37288"/>
<rect x="-0.68644" y="0.68644" width="60.4067" height="60.4067" transform="matrix(-1 0 0 1 785.288 1147.73)" stroke="white" stroke-width="1.37288"/>
<rect x="-0.68644" y="0.68644" width="60.4067" height="60.4067" transform="matrix(-1 0 0 1 724.881 1147.73)" stroke="white" stroke-width="1.37288"/>
<rect x="-0.68644" y="0.68644" width="60.4067" height="60.4067" transform="matrix(-1 0 0 1 664.475 1147.73)" stroke="white" stroke-width="1.37288"/>
<rect x="-0.68644" y="0.68644" width="60.4067" height="60.4067" transform="matrix(-1 0 0 1 604.068 1147.73)" stroke="white" stroke-width="1.37288"/>
<rect x="-0.68644" y="0.68644" width="60.4067" height="60.4067" transform="matrix(-1 0 0 1 543.661 1147.73)" stroke="white" stroke-width="1.37288"/>
<rect x="-0.68644" y="0.68644" width="60.4067" height="60.4067" transform="matrix(-1 0 0 1 483.254 1147.73)" stroke="white" stroke-width="1.37288"/>
<rect x="-0.68644" y="0.68644" width="60.4067" height="60.4067" transform="matrix(-1 0 0 1 422.848 1147.73)" stroke="white" stroke-width="1.37288"/>
<rect x="-0.68644" y="0.68644" width="60.4067" height="60.4067" transform="matrix(-1 0 0 1 362.441 1147.73)" stroke="white" stroke-width="1.37288"/>
<rect x="-0.68644" y="0.68644" width="60.4067" height="60.4067" transform="matrix(-1 0 0 1 302.034 1147.73)" stroke="white" stroke-width="1.37288"/>
<rect x="-0.68644" y="0.68644" width="60.4067" height="60.4067" transform="matrix(-1 0 0 1 241.627 1147.73)" stroke="white" stroke-width="1.37288"/>
<rect x="-0.68644" y="0.68644" width="60.4067" height="60.4067" transform="matrix(-1 0 0 1 181.221 1147.73)" stroke="white" stroke-width="1.37288"/>
<rect x="-0.68644" y="0.68644" width="60.4067" height="60.4067" transform="matrix(-1 0 0 1 120.814 1147.73)" stroke="white" stroke-width="1.37288"/>
<rect x="-0.68644" y="0.68644" width="60.4067" height="60.4067" transform="matrix(-1 0 0 1 60.4074 1147.73)" stroke="white" stroke-width="1.37288"/>
</g>
</svg>
