<svg width="520" height="35" viewBox="0 0 520 35" fill="none" xmlns="http://www.w3.org/2000/svg">
<path d="M14.4525 2.5C15.9458 2.5 17.4392 2.5 109.06 4.1648C200.682 5.82961 382.385 9.15921 464.923 10.5933C547.46 12.0274 525.325 11.465 431.419 14.5792C337.513 17.6933 172.506 24.501 2.5 31.515" stroke="#E8C630" stroke-width="5" stroke-linecap="round"/>
<path d="M7.02734 23.2369C11.0871 23.1085 15.1469 22.9801 85.2388 22.2724C155.331 21.5646 291.332 20.2814 361.674 19.5863C432.016 18.8912 432.577 18.823 443.685 18.9913C454.793 19.1595 476.429 19.5662 488.562 19.916C506.038 20.8351 510.623 20.9613 513.753 21.3051C514.686 21.3816 515.919 21.4304 517.188 21.4807" stroke="#E8C630" stroke-width="5" stroke-linecap="round"/>
</svg>
